<svg width="224" height="34" viewBox="0 0 224 34" fill="none" xmlns="http://www.w3.org/2000/svg">
<path fill-rule="evenodd" clip-rule="evenodd" d="M23.4299 13.7686H13.9749V30.3386H23.4299V13.7686ZM23.4299 11.8026V4.95014L2.18262 11.7028V30.3386H12.009V11.8026L23.4299 11.8026ZM25.3965 13.7686V30.3386H32.3893V13.7686H25.3965ZM25.3965 11.8026H34.3552V32.3043H0.216675V10.2694L25.3965 2.26742V11.8026Z" fill="white"/>
<path d="M62.7165 26.2859H65.1615L58.3358 8.96687H55.6361L48.8358 26.2859H51.1535L52.7835 22.1344H61.0865L62.7165 26.2859ZM56.4256 12.7618L56.935 11.2336L57.4444 12.7618L60.3733 20.2497H53.4966L56.4256 12.7618ZM69.1771 26.2859H71.5202V19.0272H75.1878C77.2763 19.0272 78.1422 19.4347 78.6516 21.5996L79.7468 26.2859H82.2173L80.9183 21.1411C80.4854 19.4347 79.8996 18.4923 78.7789 17.9829C80.409 17.2443 81.3768 15.8435 81.3768 13.8569C81.3768 10.8516 79.0591 8.96687 75.417 8.96687H69.1771V26.2859ZM75.3661 10.8771C77.6074 10.8771 78.9572 12.0741 78.9572 13.9843C78.9572 15.8945 77.6074 17.117 75.3151 17.117H71.5202V10.8771H75.3661ZM100.812 13.9588C99.971 10.495 97.1185 8.66124 93.782 8.66124C88.892 8.66124 85.9121 12.125 85.9121 17.6518C85.9121 23.2041 88.841 26.5915 93.6802 26.5915C96.9912 26.5915 99.8182 24.6813 100.786 21.3958H98.3156C97.5769 23.4843 95.845 24.5795 93.7056 24.5795C90.2928 24.5795 88.3062 21.9816 88.3062 17.6518C88.3062 13.3221 90.3182 10.6733 93.7056 10.6733C95.9215 10.6733 97.7298 11.8449 98.3665 13.9588H100.812ZM105.413 26.2859H107.756V18.314H116.823V26.2859H119.166V8.96687H116.823V16.4039H107.756V8.96687H105.413V26.2859ZM124.675 26.2859H127.018V8.96687H124.675V26.2859ZM137.258 26.2859H139.601V10.9535H145.535V8.96687H131.324V10.9535H137.258V26.2859ZM149.843 26.2859H161.584V24.3757H152.186V18.2631H160.641V16.3529H152.186V10.8771H161.584V8.96687H149.843V26.2859ZM180.482 13.9588C179.642 10.495 176.789 8.66124 173.453 8.66124C168.563 8.66124 165.583 12.125 165.583 17.6518C165.583 23.2041 168.512 26.5915 173.351 26.5915C176.662 26.5915 179.489 24.6813 180.457 21.3958H177.986C177.248 23.4843 175.516 24.5795 173.376 24.5795C169.963 24.5795 167.977 21.9816 167.977 17.6518C167.977 13.3221 169.989 10.6733 173.376 10.6733C175.592 10.6733 177.4 11.8449 178.037 13.9588H180.482ZM189.323 26.2859H191.666V10.9535H197.601V8.96687H183.389V10.9535H189.323V26.2859ZM219.193 26.2859H221.918L215.627 17.2953L221.46 8.96687H218.938L215.194 14.2135L214.405 15.4615L213.615 14.2135L209.795 8.96687H207.07L212.928 17.3462L206.611 26.2859H209.133L213.437 20.2752L214.15 19.18L214.863 20.2752L219.193 26.2859Z" fill="white"/>
</svg>
