<svg width="86" height="86" viewBox="0 0 86 86" fill="none" xmlns="http://www.w3.org/2000/svg">
<path d="M51.0625 83.3125V40.3125C51.0625 38.887 51.0626 36.5118 51.0626 34.9377C53.8146 34.9375 55.012 34.9375 56.4375 34.9375H77.9375C79.363 34.9375 81.1324 34.9374 83.3125 34.9377C83.3125 36.4235 83.3125 38.887 83.3125 40.3125V83.3125" stroke="#2D2D2D" stroke-width="2" stroke-linecap="square"/>
<path d="M51.0625 51.0625H83.3125" stroke="#2D2D2D" stroke-width="2" stroke-linecap="square"/>
<path d="M51.0625 67.1875H83.3125" stroke="#2D2D2D" stroke-width="2" stroke-linecap="square"/>
<path d="M56.3441 34.4L67.1875 18.8125L78.0971 34.4" stroke="#2D2D2D" stroke-width="2" stroke-linecap="square"/>
<path d="M2.6875 83.3125V18.8125L21.5 2.6875L40.3125 18.8125V83.3125" stroke="#2D2D2D" stroke-width="2" stroke-linecap="square"/>
<path d="M3.2265 27.3176L39.65 45.5294" stroke="#2D2D2D" stroke-width="2" stroke-linecap="square"/>
<path d="M3.2265 64.7529L39.65 82.9647" stroke="#2D2D2D" stroke-width="2" stroke-linecap="square"/>
<path d="M3.73236 64.7528L39.65 45.5293" stroke="#2D2D2D" stroke-width="2" stroke-linecap="square"/>
<path d="M2.6875 21.5H40.3125" stroke="#2D2D2D" stroke-width="2" stroke-linecap="square"/>
</svg>
