<svg width="224" height="34" viewBox="0 0 224 34" fill="none" xmlns="http://www.w3.org/2000/svg">
<path fill-rule="evenodd" clip-rule="evenodd" d="M23.4808 13.4827H14.0258V30.0528H23.4808V13.4827ZM23.4808 11.5167V4.66425L2.23352 11.417V30.0528H12.0599V11.5167L23.4808 11.5167ZM25.4474 13.4827V30.0528H32.4402V13.4827H25.4474ZM25.4474 11.5167H34.4061V32.0184H0.267578V9.98354L25.4474 1.98153V11.5167Z" fill="#0D0D0D"/>
<path d="M62.7674 26H65.2124L58.3867 8.68099H55.687L48.8867 26H51.2044L52.8344 21.8485H61.1374L62.7674 26ZM56.4765 12.4759L56.9859 10.9477L57.4953 12.4759L60.4242 19.9638H53.5476L56.4765 12.4759ZM69.228 26H71.5711V18.7413H75.2387C77.3272 18.7413 78.1931 19.1488 78.7025 21.3137L79.7977 26H82.2682L80.9693 20.8552C80.5363 19.1488 79.9505 18.2064 78.8298 17.6971C80.4599 16.9585 81.4277 15.5577 81.4277 13.5711C81.4277 10.5657 79.11 8.68099 75.4679 8.68099H69.228V26ZM75.417 10.5912C77.6583 10.5912 79.0081 11.7882 79.0081 13.6984C79.0081 15.6086 77.6583 16.8311 75.366 16.8311H71.5711V10.5912H75.417ZM100.862 13.6729C100.022 10.2091 97.1694 8.37536 93.833 8.37536C88.9429 8.37536 85.963 11.8392 85.963 17.366C85.963 22.9182 88.8919 26.3056 93.7311 26.3056C97.0421 26.3056 99.8691 24.3954 100.837 21.1099H98.3665C97.6279 23.1984 95.8959 24.2936 93.7565 24.2936C90.3437 24.2936 88.3571 21.6957 88.3571 17.366C88.3571 13.0362 90.3691 10.3874 93.7565 10.3874C95.9724 10.3874 97.7807 11.559 98.4174 13.6729H100.862ZM105.464 26H107.807V18.0282H116.874V26H119.217V8.68099H116.874V16.118H107.807V8.68099H105.464V26ZM124.726 26H127.069V8.68099H124.726V26ZM137.309 26H139.652V10.6676H145.586V8.68099H131.374V10.6676H137.309V26ZM149.893 26H161.635V24.0898H152.237V17.9772H160.692V16.067H152.237V10.5912H161.635V8.68099H149.893V26ZM180.533 13.6729C179.693 10.2091 176.84 8.37536 173.504 8.37536C168.613 8.37536 165.634 11.8392 165.634 17.366C165.634 22.9182 168.563 26.3056 173.402 26.3056C176.713 26.3056 179.54 24.3954 180.508 21.1099H178.037C177.298 23.1984 175.567 24.2936 173.427 24.2936C170.014 24.2936 168.028 21.6957 168.028 17.366C168.028 13.0362 170.04 10.3874 173.427 10.3874C175.643 10.3874 177.451 11.559 178.088 13.6729H180.533ZM189.374 26H191.717V10.6676H197.652V8.68099H183.44V10.6676H189.374V26ZM219.244 26H221.969L215.678 17.0094L221.511 8.68099H218.989L215.245 13.9276L214.456 15.1756L213.666 13.9276L209.846 8.68099H207.121L212.979 17.0603L206.662 26H209.184L213.488 19.9893L214.201 18.8941L214.914 19.9893L219.244 26Z" fill="#0D0D0D"/>
</svg>
