<svg width="100" height="100" viewBox="0 0 100 100" fill="none" xmlns="http://www.w3.org/2000/svg">
<path d="M33.3374 50C33.3374 40.7956 40.7973 33.332 50.002 33.332C59.2068 33.332 66.6707 40.7956 66.6707 50C66.6707 59.2044 59.2068 66.668 50.002 66.668C40.7973 66.668 33.3374 59.2044 33.3374 50ZM24.3265 50C24.3265 64.1801 35.8213 75.6745 50.002 75.6745C64.1827 75.6745 75.6775 64.1801 75.6775 50C75.6775 35.8199 64.1827 24.3255 50.002 24.3255C35.8213 24.3255 24.3265 35.8199 24.3265 50ZM70.6935 23.3078C70.6935 26.6195 73.3794 29.3094 76.6953 29.3094C80.0073 29.3094 82.6972 26.6195 82.6972 23.3078C82.6972 19.996 80.0113 17.3102 76.6953 17.3102C73.3794 17.3102 70.6935 19.996 70.6935 23.3078ZM29.7993 90.6987C24.9243 90.4766 22.2747 89.6648 20.5138 88.9782C18.1792 88.0695 16.5152 86.9871 14.7623 85.2383C13.0135 83.4895 11.927 81.8255 11.0223 79.4911C10.3356 77.7302 9.52381 75.0808 9.30167 70.206C9.05933 64.9354 9.01087 63.3522 9.01087 50C9.01087 36.6478 9.06337 35.0687 9.30167 29.794C9.52381 24.9192 10.3397 22.2738 11.0223 20.5089C11.931 18.1745 13.0135 16.5105 14.7623 14.7577C16.5112 13.0089 18.1752 11.9225 20.5138 11.0178C22.2747 10.3312 24.9243 9.51939 29.7993 9.29725C35.0701 9.05493 36.6533 9.00646 50.002 9.00646C63.3547 9.00646 64.934 9.05897 70.2088 9.29725C75.0838 9.51939 77.7293 10.3352 79.4943 11.0178C81.8288 11.9225 83.4929 13.0089 85.2458 14.7577C86.9946 16.5065 88.0771 18.1745 88.9858 20.5089C89.6724 22.2698 90.4843 24.9192 90.7064 29.794C90.9488 35.0687 90.9972 36.6478 90.9972 50C90.9972 63.3481 90.9488 64.9313 90.7064 70.206C90.4843 75.0808 89.6684 77.7302 88.9858 79.4911C88.0771 81.8255 86.9946 83.4895 85.2458 85.2383C83.4969 86.9871 81.8288 88.0695 79.4943 88.9782C77.7334 89.6648 75.0838 90.4766 70.2088 90.6987C64.938 90.941 63.3547 90.9895 50.002 90.9895C36.6533 90.9895 35.0701 90.941 29.7993 90.6987M29.3873 0.302908C24.064 0.545234 20.4289 1.38934 17.2503 2.6252C13.9626 3.90145 11.1757 5.61389 8.39291 8.39257C5.61412 11.1712 3.90161 13.958 2.62531 17.2496C1.38939 20.4281 0.545256 24.063 0.30292 29.3861C0.0565451 34.7173 0 36.4216 0 50C0 63.5784 0.0565451 65.2827 0.30292 70.6139C0.545256 75.937 1.38939 79.5719 2.62531 82.7504C3.90161 86.038 5.61008 88.8288 8.39291 91.6074C11.1717 94.3861 13.9586 96.0945 17.2503 97.3748C20.433 98.6107 24.064 99.4548 29.3873 99.6971C34.7227 99.9394 36.4231 100 50.002 100C63.585 100 65.2854 99.9435 70.6167 99.6971C75.9401 99.4548 79.5751 98.6107 82.7537 97.3748C86.0414 96.0945 88.8283 94.3861 91.6111 91.6074C94.3899 88.8288 96.0984 86.038 97.3787 82.7504C98.6146 79.5719 99.4628 75.937 99.7011 70.6139C99.9435 65.2787 100 63.5784 100 50C100 36.4216 99.9435 34.7173 99.7011 29.3861C99.4588 24.063 98.6146 20.4281 97.3787 17.2496C96.0984 13.962 94.3899 11.1753 91.6111 8.39257C88.8323 5.61389 86.0414 3.90145 82.7578 2.6252C79.5751 1.38934 75.9401 0.541196 70.6208 0.302908C65.2894 0.0605816 63.585 0 50.0061 0C36.4231 0 34.7227 0.0565428 29.3873 0.302908" fill="white"/>
</svg>
