<svg width="86" height="86" viewBox="0 0 86 86" fill="none" xmlns="http://www.w3.org/2000/svg">
<path d="M40.3125 61.8125V72.5625C40.3125 73.988 40.3127 76.3632 40.3126 77.9375C43.1911 77.9375 44.262 77.9375 45.6875 77.9375H67.1875C68.613 77.9375 70.5088 77.9375 72.5625 77.9375C72.5625 75.8824 72.5625 73.988 72.5625 72.5625V61.8125" stroke="#2D2D2D" stroke-width="2" stroke-linecap="square"/>
<path d="M83.3125 56.4366L56.4375 32.8821L29.5625 56.4366" stroke="#2D2D2D" stroke-width="2" stroke-linecap="square"/>
<path d="M77.9375 51.0941V37.625" stroke="#2D2D2D" stroke-width="2" stroke-linecap="square"/>
<path d="M83.3125 5.375C83.3125 4.66223 83.3125 3.54118 83.3125 2.68762C82.65 2.68762 81.3378 2.6875 80.625 2.6875H5.375C4.66223 2.6875 3.37137 2.68753 2.68762 2.68775C2.68762 4.04706 2.6875 4.66223 2.6875 5.375V80.625C2.6875 81.3378 2.6875 82.4588 2.6875 83.3125C3.73236 83.3125 4.66223 83.3125 5.375 83.3125H16.125C16.8378 83.3125 17.8971 83.3125 18.8125 83.3125C18.8125 82.5253 18.8125 81.3378 18.8125 80.625V18.8125H80.625C81.3378 18.8125 82.1441 18.8125 83.3125 18.8125C83.3125 18.2118 83.3125 16.8378 83.3125 16.125V5.375Z" stroke="#2D2D2D" stroke-width="2" stroke-linecap="square"/>
<path d="M13.4375 40.3125H18.8125" stroke="#2D2D2D" stroke-width="2" stroke-linecap="square"/>
<path d="M13.4375 61.8125H18.8125" stroke="#2D2D2D" stroke-width="2" stroke-linecap="square"/>
<path d="M40.3125 18.8125V13.4375" stroke="#2D2D2D" stroke-width="2" stroke-linecap="square"/>
<path d="M61.8125 18.8125V13.4375" stroke="#2D2D2D" stroke-width="2" stroke-linecap="square"/>
<path d="M2.6875 18.8125H18.8125V2.6875" stroke="#2D2D2D" stroke-width="2" stroke-linecap="square"/>
</svg>
