<svg width="86" height="86" viewBox="0 0 86 86" fill="none" xmlns="http://www.w3.org/2000/svg">
<path d="M14.4482 49.9658V48.9658H12.4482V49.9658H14.4482ZM13.4482 79.5283H12.4482V80.5283H13.4482V79.5283ZM34.9482 79.5283V80.5283H35.9482V79.5283H34.9482ZM34.9482 52.6533V51.6533H33.9482V52.6533H34.9482ZM40.3232 52.6533V51.6533V52.6533ZM45.6982 52.6533V51.6533V52.6533ZM51.0732 52.6533H52.0732V51.6533H51.0732V52.6533ZM51.0732 79.5283H50.0732V80.5283H51.0732V79.5283ZM72.5732 79.5283V80.5283H73.5732V79.5283H72.5732ZM73.5732 49.9658V48.9658H71.5732V49.9658H73.5732ZM12.4482 49.9658V79.5283H14.4482V49.9658H12.4482ZM13.4482 80.5283H34.9482V78.5283H13.4482V80.5283ZM35.9482 79.5283V58.0283H33.9482V79.5283H35.9482ZM35.9482 58.0283C35.9482 58.0255 35.9482 58.0228 35.9482 58.02C35.9482 58.0172 35.9482 58.0144 35.9482 58.0117C35.9482 58.0089 35.9482 58.0061 35.9482 58.0034C35.9482 58.0006 35.9482 57.9978 35.9482 57.9951C35.9482 57.9923 35.9482 57.9896 35.9482 57.9868C35.9482 57.9841 35.9482 57.9813 35.9482 57.9786C35.9482 57.9759 35.9482 57.9731 35.9482 57.9704C35.9482 57.9677 35.9482 57.9649 35.9482 57.9622C35.9482 57.9595 35.9482 57.9567 35.9482 57.954C35.9482 57.9513 35.9482 57.9486 35.9482 57.9459C35.9482 57.9432 35.9482 57.9405 35.9482 57.9378C35.9482 57.935 35.9482 57.9323 35.9482 57.9296C35.9482 57.9269 35.9482 57.9242 35.9482 57.9216C35.9482 57.9189 35.9482 57.9162 35.9482 57.9135C35.9482 57.9108 35.9482 57.9081 35.9482 57.9054C35.9482 57.9028 35.9482 57.9001 35.9482 57.8974C35.9482 57.8947 35.9482 57.8921 35.9482 57.8894C35.9482 57.8867 35.9482 57.8841 35.9482 57.8814C35.9482 57.8788 35.9482 57.8761 35.9482 57.8734C35.9482 57.8708 35.9482 57.8681 35.9482 57.8655C35.9482 57.8628 35.9482 57.8602 35.9482 57.8576C35.9482 57.8549 35.9482 57.8523 35.9482 57.8496C35.9482 57.847 35.9482 57.8444 35.9482 57.8417C35.9482 57.8391 35.9482 57.8365 35.9482 57.8339C35.9482 57.8312 35.9482 57.8286 35.9482 57.826C35.9482 57.8234 35.9482 57.8208 35.9482 57.8182C35.9482 57.8156 35.9482 57.813 35.9482 57.8103C35.9482 57.8077 35.9482 57.8051 35.9482 57.8025C35.9482 57.7999 35.9482 57.7973 35.9482 57.7948C35.9482 57.7922 35.9482 57.7896 35.9482 57.787C35.9482 57.7844 35.9482 57.7818 35.9482 57.7792C35.9482 57.7766 35.9482 57.7741 35.9482 57.7715C35.9482 57.7689 35.9482 57.7663 35.9482 57.7638C35.9482 57.7612 35.9482 57.7586 35.9482 57.7561C35.9482 57.7535 35.9482 57.7509 35.9482 57.7484C35.9482 57.7458 35.9482 57.7432 35.9482 57.7407C35.9482 57.7381 35.9482 57.7356 35.9482 57.733C35.9482 57.7305 35.9482 57.7279 35.9482 57.7254C35.9482 57.7228 35.9482 57.7203 35.9482 57.7178C35.9482 57.7152 35.9482 57.7127 35.9482 57.7102C35.9482 57.7076 35.9482 57.7051 35.9482 57.7026C35.9482 57.7 35.9482 57.6975 35.9482 57.695C35.9482 57.6925 35.9482 57.6899 35.9482 57.6874C35.9482 57.6849 35.9482 57.6824 35.9482 57.6799C35.9482 57.6773 35.9482 57.6748 35.9482 57.6723C35.9482 57.6698 35.9482 57.6673 35.9482 57.6648C35.9482 57.6623 35.9482 57.6598 35.9482 57.6573C35.9482 57.6548 35.9482 57.6523 35.9482 57.6498C35.9482 57.6473 35.9482 57.6448 35.9482 57.6423C35.9482 57.6398 35.9482 57.6373 35.9482 57.6348C35.9482 57.6324 35.9482 57.6299 35.9482 57.6274C35.9482 57.6249 35.9482 57.6224 35.9482 57.62C35.9482 57.6175 35.9482 57.615 35.9482 57.6125C35.9482 57.6101 35.9482 57.6076 35.9482 57.6051C35.9482 57.6026 35.9482 57.6002 35.9482 57.5977C35.9482 57.5952 35.9482 57.5928 35.9482 57.5903C35.9482 57.5879 35.9482 57.5854 35.9482 57.5829C35.9482 57.5805 35.9482 57.578 35.9482 57.5756C35.9482 57.5731 35.9482 57.5707 35.9482 57.5682C35.9482 57.5658 35.9482 57.5633 35.9482 57.5609C35.9482 57.5584 35.9482 57.556 35.9482 57.5535C35.9482 57.5511 35.9482 57.5487 35.9482 57.5462C35.9482 57.5438 35.9482 57.5414 35.9482 57.5389C35.9482 57.5365 35.9482 57.5341 35.9482 57.5316C35.9482 57.5292 35.9482 57.5268 35.9482 57.5243C35.9482 57.5219 35.9482 57.5195 35.9482 57.5171C35.9482 57.5146 35.9482 57.5122 35.9482 57.5098C35.9482 57.5074 35.9482 57.505 35.9482 57.5025C35.9482 57.5001 35.9482 57.4977 35.9482 57.4953C35.9482 57.4929 35.9482 57.4905 35.9482 57.4881C35.9482 57.4856 35.9482 57.4832 35.9482 57.4808C35.9482 57.4784 35.9482 57.476 35.9482 57.4736C35.9482 57.4712 35.9482 57.4688 35.9482 57.4664C35.9482 57.464 35.9482 57.4616 35.9482 57.4592C35.9482 57.4568 35.9482 57.4544 35.9482 57.452C35.9482 57.4496 35.9482 57.4472 35.9482 57.4448C35.9482 57.4425 35.9482 57.4401 35.9482 57.4377C35.9482 57.4353 35.9482 57.4329 35.9482 57.4305C35.9482 57.4281 35.9482 57.4257 35.9482 57.4234C35.9482 57.421 35.9482 57.4186 35.9482 57.4162C35.9482 57.4138 35.9482 57.4114 35.9482 57.4091C35.9482 57.4067 35.9482 57.4043 35.9482 57.4019C35.9482 57.3996 35.9482 57.3972 35.9482 57.3948C35.9482 57.3924 35.9482 57.3901 35.9482 57.3877C35.9482 57.3853 35.9482 57.383 35.9482 57.3806C35.9482 57.3782 35.9482 57.3759 35.9482 57.3735C35.9482 57.3711 35.9482 57.3688 35.9482 57.3664C35.9482 57.364 35.9482 57.3617 35.9482 57.3593C35.9482 57.357 35.9482 57.3546 35.9482 57.3522C35.9482 57.3499 35.9482 57.3475 35.9482 57.3452C35.9482 57.3428 35.9482 57.3404 35.9482 57.3381C35.9482 57.3357 35.9482 57.3334 35.9482 57.331C35.9482 57.3287 35.9482 57.3263 35.9482 57.324C35.9482 57.3216 35.9482 57.3193 35.9482 57.3169C35.9482 57.3146 35.9482 57.3122 35.9482 57.3099C35.9482 57.3075 35.9482 57.3052 35.9482 57.3028C35.9482 57.3005 35.9482 57.2981 35.9482 57.2958C35.9482 57.2935 35.9482 57.2911 35.9482 57.2888C35.9482 57.2864 35.9482 57.2841 35.9482 57.2817C35.9482 57.2794 35.9482 57.2771 35.9482 57.2747C35.9482 57.2724 35.9482 57.27 35.9482 57.2677C35.9482 57.2654 35.9482 57.263 35.9482 57.2607C35.9482 57.2584 35.9482 57.256 35.9482 57.2537C35.9482 57.2513 35.9482 57.249 35.9482 57.2467C35.9482 57.2443 35.9482 57.242 35.9482 57.2397C35.9482 57.2373 35.9482 57.235 35.9482 57.2327C35.9482 57.2303 35.9482 57.228 35.9482 57.2257C35.9482 57.2233 35.9482 57.221 35.9482 57.2187C35.9482 57.2164 35.9482 57.214 35.9482 57.2117C35.9482 57.2094 35.9482 57.207 35.9482 57.2047C35.9482 57.2024 35.9482 57.2001 35.9482 57.1977C35.9482 57.1954 35.9482 57.1931 35.9482 57.1907C35.9482 57.1884 35.9482 57.1861 35.9482 57.1838C35.9482 57.1814 35.9482 57.1791 35.9482 57.1768C35.9482 57.1745 35.9482 57.1721 35.9482 57.1698C35.9482 57.1675 35.9482 57.1652 35.9482 57.1628C35.9482 57.1605 35.9482 57.1582 35.9482 57.1559C35.9482 57.1535 35.9482 57.1512 35.9482 57.1489C35.9482 57.1466 35.9482 57.1443 35.9482 57.1419C35.9482 57.1396 35.9482 57.1373 35.9482 57.135C35.9482 57.1326 35.9482 57.1303 35.9482 57.128C35.9482 57.1257 35.9482 57.1233 35.9482 57.121C35.9482 57.1187 35.9482 57.1164 35.9482 57.1141C35.9482 57.1117 35.9482 57.1094 35.9482 57.1071C35.9482 57.1048 35.9482 57.1024 35.9482 57.1001C35.9482 57.0978 35.9482 57.0955 35.9482 57.0932C35.9482 57.0908 35.9482 57.0885 35.9482 57.0862C35.9482 57.0839 35.9482 57.0815 35.9482 57.0792C35.9482 57.0769 35.9482 57.0746 35.9482 57.0723C35.9482 57.0699 35.9482 57.0676 35.9482 57.0653C35.9482 57.063 35.9482 57.0606 35.9482 57.0583C35.9482 57.056 35.9482 57.0537 35.9482 57.0513C35.9482 57.049 35.9482 57.0467 35.9482 57.0444C35.9482 57.042 35.9482 57.0397 35.9482 57.0374C35.9482 57.0351 35.9482 57.0327 35.9482 57.0304C35.9482 57.0281 35.9482 57.0258 35.9482 57.0234C35.9482 57.0211 35.9482 57.0188 35.9482 57.0165C35.9482 57.0141 35.9482 57.0118 35.9482 57.0095C35.9482 57.0071 35.9482 57.0048 35.9482 57.0025C35.9482 57.0002 35.9482 56.9978 35.9482 56.9955C35.9482 56.9932 35.9482 56.9908 35.9482 56.9885C35.9482 56.9862 35.9482 56.9838 35.9482 56.9815C35.9482 56.9792 35.9482 56.9768 35.9482 56.9745C35.9482 56.9722 35.9482 56.9698 35.9482 56.9675C35.9482 56.9652 35.9482 56.9628 35.9482 56.9605C35.9482 56.9582 35.9482 56.9558 35.9482 56.9535C35.9482 56.9512 35.9482 56.9488 35.9482 56.9465C35.9482 56.9442 35.9482 56.9418 35.9482 56.9395C35.9482 56.9371 35.9482 56.9348 35.9482 56.9325C35.9482 56.9301 35.9482 56.9278 35.9482 56.9254C35.9482 56.9231 35.9482 56.9207 35.9482 56.9184C35.9482 56.9161 35.9482 56.9137 35.9482 56.9114C35.9482 56.909 35.9482 56.9067 35.9482 56.9043C35.9482 56.902 35.9482 56.8996 35.9482 56.8973C35.9482 56.8949 35.9482 56.8926 35.9482 56.8902C35.9482 56.8879 35.9482 56.8855 35.9482 56.8832C35.9482 56.8808 35.9482 56.8785 35.9482 56.8761C35.9482 56.8738 35.9482 56.8714 35.9482 56.869C35.9482 56.8667 35.9482 56.8643 35.9482 56.862C35.9482 56.8596 35.9482 56.8573 35.9482 56.8549C35.9482 56.8525 35.9482 56.8502 35.9482 56.8478C35.9482 56.8454 35.9482 56.8431 35.9482 56.8407C35.9482 56.8383 35.9482 56.836 35.9482 56.8336C35.9482 56.8312 35.9482 56.8289 35.9482 56.8265C35.9482 56.8241 35.9482 56.8218 35.9482 56.8194C35.9482 56.817 35.9482 56.8146 35.9482 56.8123C35.9482 56.8099 35.9482 56.8075 35.9482 56.8051C35.9482 56.8028 35.9482 56.8004 35.9482 56.798C35.9482 56.7956 35.9482 56.7932 35.9482 56.7909C35.9482 56.7885 35.9482 56.7861 35.9482 56.7837C35.9482 56.7813 35.9482 56.7789 35.9482 56.7765C35.9482 56.7742 35.9482 56.7718 35.9482 56.7694C35.9482 56.767 35.9482 56.7646 35.9482 56.7622C35.9482 56.7598 35.9482 56.7574 35.9482 56.755C35.9482 56.7526 35.9482 56.7502 35.9482 56.7478C35.9482 56.7454 35.9482 56.743 35.9482 56.7406C35.9482 56.7382 35.9482 56.7358 35.9482 56.7334C35.9482 56.731 35.9482 56.7286 35.9482 56.7262C35.9482 56.7238 35.9482 56.7214 35.9482 56.7189C35.9482 56.7165 35.9482 56.7141 35.9482 56.7117C35.9482 56.7093 35.9482 56.7069 35.9482 56.7044C35.9482 56.702 35.9482 56.6996 35.9482 56.6972C35.9482 56.6948 35.9482 56.6923 35.9482 56.6899C35.9482 56.6875 35.9482 56.6851 35.9482 56.6826C35.9482 56.6802 35.9482 56.6778 35.9482 56.6753C35.9482 56.6729 35.9482 56.6705 35.9482 56.668C35.9482 56.6656 35.9482 56.6631 35.9482 56.6607C35.9482 56.6583 35.9482 56.6558 35.9482 56.6534C35.9482 56.6509 35.9482 56.6485 35.9482 56.646C35.9482 56.6436 35.9482 56.6411 35.9482 56.6387C35.9482 56.6362 35.9482 56.6338 35.9482 56.6313C35.9482 56.6289 35.9482 56.6264 35.9482 56.6239C35.9482 56.6215 35.9482 56.619 35.9482 56.6166C35.9482 56.6141 35.9482 56.6116 35.9482 56.6092C35.9482 56.6067 35.9482 56.6042 35.9482 56.6017C35.9482 56.5993 35.9482 56.5968 35.9482 56.5943C35.9482 56.5918 35.9482 56.5894 35.9482 56.5869C35.9482 56.5844 35.9482 56.5819 35.9482 56.5794C35.9482 56.5769 35.9482 56.5745 35.9482 56.572C35.9482 56.5695 35.9482 56.567 35.9482 56.5645C35.9482 56.562 35.9482 56.5595 35.9482 56.557C35.9482 56.5545 35.9482 56.552 35.9482 56.5495C35.9482 56.547 35.9482 56.5445 35.9482 56.542C35.9482 56.5395 35.9482 56.5369 35.9482 56.5344C35.9482 56.5319 35.9482 56.5294 35.9482 56.5269C35.9482 56.5244 35.9482 56.5218 35.9482 56.5193C35.9482 56.5168 35.9482 56.5143 35.9482 56.5117C35.9482 56.5092 35.9482 56.5067 35.9482 56.5042C35.9482 56.5016 35.9482 56.4991 35.9482 56.4965C35.9482 56.494 35.9482 56.4915 35.9482 56.4889C35.9482 56.4864 35.9482 56.4838 35.9482 56.4813C35.9482 56.4787 35.9482 56.4762 35.9482 56.4736C35.9482 56.4711 35.9482 56.4685 35.9482 56.466C35.9482 56.4634 35.9482 56.4608 35.9482 56.4583C35.9482 56.4557 35.9482 56.4531 35.9482 56.4506C35.9482 56.448 35.9482 56.4454 35.9482 56.4428C35.9482 56.4403 35.9482 56.4377 35.9482 56.4351C35.9482 56.4325 35.9482 56.4299 35.9482 56.4274C35.9482 56.4248 35.9482 56.4222 35.9482 56.4196C35.9482 56.417 35.9482 56.4144 35.9482 56.4118C35.9482 56.4092 35.9482 56.4066 35.9482 56.404C35.9482 56.4014 35.9482 56.3988 35.9482 56.3962C35.9482 56.3936 35.9482 56.391 35.9482 56.3883C35.9482 56.3857 35.9482 56.3831 35.9482 56.3805C35.9482 56.3779 35.9482 56.3752 35.9482 56.3726C35.9482 56.37 35.9482 56.3674 35.9482 56.3647C35.9482 56.3621 35.9482 56.3595 35.9482 56.3568C35.9482 56.3542 35.9482 56.3515 35.9482 56.3489C35.9482 56.3462 35.9482 56.3436 35.9482 56.3409C35.9482 56.3383 35.9482 56.3356 35.9482 56.333C35.9482 56.3303 35.9482 56.3276 35.9482 56.325C35.9482 56.3223 35.9482 56.3197 35.9482 56.317C35.9482 56.3143 35.9482 56.3116 35.9482 56.309C35.9482 56.3063 35.9482 56.3036 35.9482 56.3009C35.9482 56.2982 35.9482 56.2955 35.9482 56.2928C35.9482 56.2902 35.9482 56.2875 35.9482 56.2848C35.9482 56.2821 35.9482 56.2794 35.9482 56.2767C35.9482 56.274 35.9482 56.2712 35.9482 56.2685C35.9482 56.2658 35.9482 56.2631 35.9482 56.2604C35.9482 56.2577 35.9482 56.255 35.9482 56.2522C35.9482 56.2495 35.9482 56.2468 35.9482 56.244C35.9482 56.2413 35.9482 56.2386 35.9482 56.2358C35.9482 56.2331 35.9482 56.2304 35.9482 56.2276C35.9482 56.2249 35.9482 56.2221 35.9482 56.2194C35.9482 56.2166 35.9482 56.2138 35.9482 56.2111C35.9482 56.2083 35.9482 56.2056 35.9482 56.2028C35.9482 56.2 35.9482 56.1973 35.9482 56.1945C35.9482 56.1917 35.9482 56.1889 35.9482 56.1861C35.9482 56.1834 35.9482 56.1806 35.9482 56.1778C35.9482 56.175 35.9482 56.1722 35.9482 56.1694C35.9482 56.1666 35.9482 56.1638 35.9482 56.161C35.9482 56.1582 35.9482 56.1554 35.9482 56.1526C35.9482 56.1498 35.9482 56.1469 35.9482 56.1441C35.9482 56.1413 35.9482 56.1385 35.9482 56.1356C35.9482 56.1328 35.9482 56.13 35.9482 56.1271C35.9482 56.1243 35.9482 56.1215 35.9482 56.1186C35.9482 56.1158 35.9482 56.1129 35.9482 56.1101C35.9482 56.1072 35.9482 56.1044 35.9482 56.1015C35.9482 56.0987 35.9482 56.0958 35.9482 56.0929C35.9482 56.0901 35.9482 56.0872 35.9482 56.0843C35.9482 56.0814 35.9482 56.0785 35.9482 56.0757C35.9482 56.0728 35.9482 56.0699 35.9482 56.067C35.9482 56.0641 35.9482 56.0612 35.9482 56.0583C35.9482 56.0554 35.9482 56.0525 35.9482 56.0496C35.9482 56.0467 35.9482 56.0438 35.9482 56.0408C35.9482 56.0379 35.9482 56.035 35.9482 56.0321C35.9482 56.0292 35.9482 56.0262 35.9482 56.0233C35.9482 56.0204 35.9482 56.0174 35.9482 56.0145C35.9482 56.0115 35.9482 56.0086 35.9482 56.0056C35.9482 56.0027 35.9482 55.9997 35.9482 55.9968C35.9482 55.9938 35.9482 55.9908 35.9482 55.9879C35.9482 55.9849 35.9482 55.9819 35.9482 55.9789C35.9482 55.976 35.9482 55.973 35.9482 55.97C35.9482 55.967 35.9482 55.964 35.9482 55.961C35.9482 55.958 35.9482 55.955 35.9482 55.952C35.9482 55.949 35.9482 55.946 35.9482 55.943C35.9482 55.94 35.9482 55.937 35.9482 55.9339C35.9482 55.9309 35.9482 55.9279 35.9482 55.9248C35.9482 55.9218 35.9482 55.9188 35.9482 55.9157C35.9482 55.9127 35.9482 55.9096 35.9482 55.9066C35.9482 55.9035 35.9482 55.9005 35.9482 55.8974C35.9482 55.8944 35.9482 55.8913 35.9482 55.8882C35.9482 55.8852 35.9482 55.8821 35.9482 55.879C35.9482 55.8759 35.9482 55.8728 35.9482 55.8698C35.9482 55.8667 35.9482 55.8636 35.9482 55.8605C35.9482 55.8574 35.9482 55.8543 35.9482 55.8512C35.9482 55.8481 35.9482 55.8449 35.9482 55.8418C35.9482 55.8387 35.9482 55.8356 35.9482 55.8325C35.9482 55.8293 35.9482 55.8262 35.9482 55.8231C35.9482 55.8199 35.9482 55.8168 35.9482 55.8136C35.9482 55.8105 35.9482 55.8073 35.9482 55.8042C35.9482 55.801 35.9482 55.7978 35.9482 55.7947C35.9482 55.7915 35.9482 55.7883 35.9482 55.7852C35.9482 55.782 35.9482 55.7788 35.9482 55.7756C35.9482 55.7724 35.9482 55.7692 35.9482 55.766C35.9482 55.7628 35.9482 55.7596 35.9482 55.7564C35.9482 55.7532 35.9482 55.75 35.9482 55.7468C35.9482 55.7436 35.9482 55.7403 35.9482 55.7371C35.9482 55.7339 35.9482 55.7306 35.9482 55.7274C35.9482 55.7242 35.9482 55.7209 35.9482 55.7177C35.9482 55.7144 35.9482 55.7112 35.9482 55.7079C35.9482 55.7046 35.9482 55.7014 35.9482 55.6981C35.9482 55.6948 35.9482 55.6916 35.9482 55.6883C35.9482 55.685 35.9482 55.6817 35.9482 55.6784C35.9482 55.6751 35.9482 55.6718 35.9482 55.6685C35.9482 55.6652 35.9482 55.6619 35.9482 55.6586C35.9482 55.6553 35.9482 55.6519 35.9482 55.6486C35.9482 55.6453 35.9482 55.642 35.9482 55.6386C35.9482 55.6353 35.9482 55.632 35.9482 55.6286C35.9482 55.6253 35.9482 55.6219 35.9482 55.6185C35.9482 55.6152 35.9482 55.6118 35.9482 55.6084C35.9482 55.6051 35.9482 55.6017 35.9482 55.5983C35.9482 55.5949 35.9482 55.5916 35.9482 55.5882C35.9482 55.5848 35.9482 55.5814 35.9482 55.578C35.9482 55.5746 35.9482 55.5712 35.9482 55.5677C35.9482 55.5643 35.9482 55.5609 35.9482 55.5575C35.9482 55.554 35.9482 55.5506 35.9482 55.5472C35.9482 55.5437 35.9482 55.5403 35.9482 55.5368C35.9482 55.5334 35.9482 55.5299 35.9482 55.5265C35.9482 55.523 35.9482 55.5195 35.9482 55.5161C35.9482 55.5126 35.9482 55.5091 35.9482 55.5056C35.9482 55.5022 35.9482 55.4987 35.9482 55.4952C35.9482 55.4917 35.9482 55.4882 35.9482 55.4847C35.9482 55.4811 35.9482 55.4776 35.9482 55.4741C35.9482 55.4706 35.9482 55.4671 35.9482 55.4635C35.9482 55.46 35.9482 55.4565 35.9482 55.4529C35.9482 55.4494 35.9482 55.4458 35.9482 55.4423C35.9482 55.4387 35.9482 55.4351 35.9482 55.4316C35.9482 55.428 35.9482 55.4244 35.9482 55.4208C35.9482 55.4173 35.9482 55.4137 35.9482 55.4101C35.9482 55.4065 35.9482 55.4029 35.9482 55.3993C35.9482 55.3957 35.9482 55.3921 35.9482 55.3884C35.9482 55.3848 35.9482 55.3812 35.9482 55.3776C35.9482 55.3739 35.9482 55.3703 35.9482 55.3667C35.9482 55.363 35.9482 55.3594 35.9482 55.3557C35.9482 55.352 35.9482 55.3484 35.9482 55.3447C35.9482 55.341 35.9482 55.3374 35.9482 55.3337C35.9482 55.33 35.9482 55.3263 35.9482 55.3226C35.9482 55.3189 35.9482 55.3152 35.9482 55.3115C35.9482 55.3078 35.9482 55.3041 35.9482 55.3004C35.9482 55.2967 35.9482 55.2929 35.9482 55.2892C35.9482 55.2855 35.9482 55.2817 35.9482 55.278C35.9482 55.2742 35.9482 55.2705 35.9482 55.2667C35.9482 55.263 35.9482 55.2592 35.9482 55.2554C35.9482 55.2517 35.9482 55.2479 35.9482 55.2441C35.9482 55.2403 35.9482 55.2365 35.9482 55.2327C35.9482 55.2289 35.9482 55.2251 35.9482 55.2213C35.9482 55.2175 35.9482 55.2137 35.9482 55.2098C35.9482 55.206 35.9482 55.2022 35.9482 55.1983C35.9482 55.1945 35.9482 55.1907 35.9482 55.1868C35.9482 55.1829 35.9482 55.1791 35.9482 55.1752C35.9482 55.1714 35.9482 55.1675 35.9482 55.1636C35.9482 55.1597 35.9482 55.1558 35.9482 55.1519C35.9482 55.148 35.9482 55.1441 35.9482 55.1402C35.9482 55.1363 35.9482 55.1324 35.9482 55.1285C35.9482 55.1246 35.9482 55.1206 35.9482 55.1167C35.9482 55.1128 35.9482 55.1088 35.9482 55.1049C35.9482 55.1009 35.9482 55.097 35.9482 55.093C35.9482 55.089 35.9482 55.0851 35.9482 55.0811C35.9482 55.0771 35.9482 55.0731 35.9482 55.0691C35.9482 55.0652 35.9482 55.0612 35.9482 55.0572C35.9482 55.0531 35.9482 55.0491 35.9482 55.0451C35.9482 55.0411 35.9482 55.0371 35.9482 55.033C35.9482 55.029 35.9482 55.025 35.9482 55.0209C35.9482 55.0169 35.9482 55.0128 35.9482 55.0087C35.9482 55.0047 35.9482 55.0006 35.9482 54.9965C35.9482 54.9925 35.9482 54.9884 35.9482 54.9843C35.9482 54.9802 35.9482 54.9761 35.9482 54.972C35.9482 54.9679 35.9482 54.9638 35.9482 54.9596C35.9482 54.9555 35.9482 54.9514 35.9482 54.9473C35.9482 54.9431 35.9482 54.939 35.9482 54.9348C35.9482 54.9307 35.9482 54.9265 35.9482 54.9223C35.9482 54.9182 35.9482 54.914 35.9482 54.9098C35.9482 54.9056 35.9482 54.9015 35.9482 54.8973C35.9482 54.8931 35.9482 54.8889 35.9482 54.8847C35.9482 54.8804 35.9482 54.8762 35.9482 54.872C35.9482 54.8678 35.9482 54.8635 35.9482 54.8593C35.9482 54.8551 35.9482 54.8508 35.9482 54.8466C35.9482 54.8423 35.9482 54.838 35.9482 54.8338C35.9482 54.8295 35.9482 54.8252 35.9482 54.8209C35.9482 54.8166 35.9482 54.8124 35.9482 54.808C35.9482 54.8037 35.9482 54.7994 35.9482 54.7951C35.9482 54.7908 35.9482 54.7865 35.9482 54.7821C35.9482 54.7778 35.9482 54.7735 35.9482 54.7691C35.9482 54.7648 35.9482 54.7604 35.9482 54.7561C35.9482 54.7517 35.9482 54.7473 35.9482 54.7429C35.9482 54.7386 35.9482 54.7342 35.9482 54.7298C35.9482 54.7254 35.9482 54.721 35.9482 54.7166C35.9482 54.7122 35.9482 54.7077 35.9482 54.7033C35.9482 54.6989 35.9482 54.6944 35.9482 54.69C35.9482 54.6856 35.9482 54.6811 35.9482 54.6767C35.9482 54.6722 35.9482 54.6677 35.9482 54.6633C35.9482 54.6588 35.9482 54.6543 35.9482 54.6498C35.9482 54.6453 35.9482 54.6408 35.9482 54.6363C35.9482 54.6318 35.9482 54.6273 35.9482 54.6228C35.9482 54.6182 35.9482 54.6137 35.9482 54.6092C35.9482 54.6046 35.9482 54.6001 35.9482 54.5955C35.9482 54.591 35.9482 54.5864 35.9482 54.5818C35.9482 54.5773 35.9482 54.5727 35.9482 54.5681C35.9482 54.5635 35.9482 54.5589 35.9482 54.5543C35.9482 54.5497 35.9482 54.5451 35.9482 54.5405C35.9482 54.5358 35.9482 54.5312 35.9482 54.5266C35.9482 54.5219 35.9482 54.5173 35.9482 54.5126C35.9482 54.508 35.9482 54.5033 35.9482 54.4986C35.9482 54.494 35.9482 54.4893 35.9482 54.4846C35.9482 54.4799 35.9482 54.4752 35.9482 54.4705C35.9482 54.4658 35.9482 54.4611 35.9482 54.4564C35.9482 54.4516 35.9482 54.4469 35.9482 54.4422C35.9482 54.4374 35.9482 54.4327 35.9482 54.4279C35.9482 54.4232 35.9482 54.4184 35.9482 54.4136C35.9482 54.4088 35.9482 54.4041 35.9482 54.3993C35.9482 54.3945 35.9482 54.3897 35.9482 54.3849C35.9482 54.3801 35.9482 54.3752 35.9482 54.3704C35.9482 54.3656 35.9482 54.3608 35.9482 54.3559C35.9482 54.3511 35.9482 54.3462 35.9482 54.3414C35.9482 54.3365 35.9482 54.3316 35.9482 54.3268C35.9482 54.3219 35.9482 54.317 35.9482 54.3121C35.9482 54.3072 35.9482 54.3023 35.9482 54.2974C35.9482 54.2925 35.9482 54.2875 35.9482 54.2826C35.9482 54.2777 35.9482 54.2727 35.9482 54.2678C35.9482 54.2629 35.9482 54.2579 35.9482 54.2529C35.9482 54.248 35.9482 54.243 35.9482 54.238C35.9482 54.233 35.9482 54.228 35.9482 54.223C35.9482 54.218 35.9482 54.213 35.9482 54.208C35.9482 54.203 35.9482 54.1979 35.9482 54.1929C35.9482 54.1879 35.9482 54.1828 35.9482 54.1778C35.9482 54.1727 35.9482 54.1676 35.9482 54.1626C35.9482 54.1575 35.9482 54.1524 35.9482 54.1473C35.9482 54.1422 35.9482 54.1371 35.9482 54.132C35.9482 54.1269 35.9482 54.1218 35.9482 54.1167C35.9482 54.1115 35.9482 54.1064 35.9482 54.1012C35.9482 54.0961 35.9482 54.0909 35.9482 54.0858C35.9482 54.0806 35.9482 54.0754 35.9482 54.0702C35.9482 54.0651 35.9482 54.0599 35.9482 54.0547C35.9482 54.0495 35.9482 54.0442 35.9482 54.039C35.9482 54.0338 35.9482 54.0286 35.9482 54.0233C35.9482 54.0181 35.9482 54.0128 35.9482 54.0076C35.9482 54.0023 35.9482 53.9971 35.9482 53.9918C35.9482 53.9865 35.9482 53.9812 35.9482 53.9759C35.9482 53.9706 35.9482 53.9653 35.9482 53.96C35.9482 53.9547 35.9482 53.9494 35.9482 53.944C35.9482 53.9387 35.9482 53.9334 35.9482 53.928C35.9482 53.9226 35.9482 53.9173 35.9482 53.9119C35.9482 53.9065 35.9482 53.9012 35.9482 53.8958C35.9482 53.8904 35.9482 53.885 35.9482 53.8796C35.9482 53.8741 35.9482 53.8687 35.9482 53.8633C35.9482 53.8579 35.9482 53.8524 35.9482 53.847C35.9482 53.8415 35.9482 53.8361 35.9482 53.8306C35.9482 53.8251 35.9482 53.8197 35.9482 53.8142C35.9482 53.8087 35.9482 53.8032 35.9482 53.7977C35.9482 53.7922 35.9482 53.7866 35.9482 53.7811C35.9482 53.7756 35.9482 53.7701 35.9482 53.7645C35.9482 53.759 35.9482 53.7534 35.9482 53.7478C35.9482 53.7423 35.9482 53.7367 35.9482 53.7311C35.9482 53.7255 35.9482 53.7199 35.9482 53.7143C35.9482 53.7087 35.9482 53.7031 35.9482 53.6975C35.9482 53.6918 35.9482 53.6862 35.9482 53.6806C35.9482 53.6749 35.9482 53.6693 35.9482 53.6636C35.9482 53.6579 35.9482 53.6522 35.9482 53.6466C35.9482 53.6409 35.9482 53.6352 35.9482 53.6295C35.9482 53.6238 35.9482 53.618 35.9482 53.6123C35.9482 53.6066 35.9482 53.6009 35.9482 53.5951C35.9482 53.5894 35.9482 53.5836 35.9482 53.5778C35.9482 53.5721 35.9482 53.5663 35.9482 53.5605C35.9482 53.5547 35.9482 53.5489 35.9482 53.5431C35.9482 53.5373 35.9482 53.5315 35.9482 53.5257C35.9482 53.5198 35.9482 53.514 35.9482 53.5081C35.9482 53.5023 35.9482 53.4964 35.9482 53.4906C35.9482 53.4847 35.9482 53.4788 35.9482 53.4729C35.9482 53.467 35.9482 53.4611 35.9482 53.4552C35.9482 53.4493 35.9482 53.4434 35.9482 53.4375C35.9482 53.4315 35.9482 53.4256 35.9482 53.4196C35.9482 53.4137 35.9482 53.4077 35.9482 53.4017C35.9482 53.3958 35.9482 53.3898 35.9482 53.3838C35.9482 53.3778 35.9482 53.3718 35.9482 53.3658C35.9482 53.3598 35.9482 53.3537 35.9482 53.3477C35.9482 53.3417 35.9482 53.3356 35.9482 53.3296C35.9482 53.3235 35.9482 53.3174 35.9482 53.3114C35.9482 53.3053 35.9482 53.2992 35.9482 53.2931C35.9482 53.287 35.9482 53.2809 35.9482 53.2748C35.9482 53.2686 35.9482 53.2625 35.9482 53.2564C35.9482 53.2502 35.9482 53.2441 35.9482 53.2379C35.9482 53.2317 35.9482 53.2256 35.9482 53.2194C35.9482 53.2132 35.9482 53.207 35.9482 53.2008C35.9482 53.1946 35.9482 53.1884 35.9482 53.1821C35.9482 53.1759 35.9482 53.1697 35.9482 53.1634C35.9482 53.1572 35.9482 53.1509 35.9482 53.1446C35.9482 53.1384 35.9482 53.1321 35.9482 53.1258C35.9482 53.1195 35.9482 53.1132 35.9482 53.1069C35.9482 53.1005 35.9482 53.0942 35.9482 53.0879C35.9482 53.0815 35.9482 53.0752 35.9482 53.0688C35.9482 53.0625 35.9482 53.0561 35.9482 53.0497C35.9482 53.0433 35.9482 53.0369 35.9482 53.0305C35.9482 53.0241 35.9482 53.0177 35.9482 53.0113C35.9482 53.0049 35.9482 52.9984 35.9482 52.992C35.9482 52.9855 35.9482 52.9791 35.9482 52.9726C35.9482 52.9661 35.9482 52.9597 35.9482 52.9532C35.9482 52.9467 35.9482 52.9402 35.9482 52.9336C35.9482 52.9271 35.9482 52.9206 35.9482 52.9141C35.9482 52.9075 35.9482 52.901 35.9482 52.8944C35.9482 52.8879 35.9482 52.8813 35.9482 52.8747C35.9482 52.8681 35.9482 52.8615 35.9482 52.8549C35.9482 52.8483 35.9482 52.8417 35.9482 52.8351C35.9482 52.8284 35.9482 52.8218 35.9482 52.8151C35.9482 52.8085 35.9482 52.8018 35.9482 52.7952C35.9482 52.7885 35.9482 52.7818 35.9482 52.7751C35.9482 52.7684 35.9482 52.7617 35.9482 52.755C35.9482 52.7483 35.9482 52.7415 35.9482 52.7348C35.9482 52.728 35.9482 52.7213 35.9482 52.7145C35.9482 52.7078 35.9482 52.701 35.9482 52.6942C35.9482 52.6874 35.9482 52.6806 35.9482 52.6738C35.9482 52.667 35.9482 52.6602 35.9482 52.6533H33.9482C33.9482 52.6602 33.9482 52.667 33.9482 52.6738C33.9482 52.6806 33.9482 52.6874 33.9482 52.6942C33.9482 52.701 33.9482 52.7078 33.9482 52.7145C33.9482 52.7213 33.9482 52.728 33.9482 52.7348C33.9482 52.7415 33.9482 52.7483 33.9482 52.755C33.9482 52.7617 33.9482 52.7684 33.9482 52.7751C33.9482 52.7818 33.9482 52.7885 33.9482 52.7952C33.9482 52.8018 33.9482 52.8085 33.9482 52.8151C33.9482 52.8218 33.9482 52.8284 33.9482 52.8351C33.9482 52.8417 33.9482 52.8483 33.9482 52.8549C33.9482 52.8615 33.9482 52.8681 33.9482 52.8747C33.9482 52.8813 33.9482 52.8879 33.9482 52.8944C33.9482 52.901 33.9482 52.9075 33.9482 52.9141C33.9482 52.9206 33.9482 52.9271 33.9482 52.9336C33.9482 52.9402 33.9482 52.9467 33.9482 52.9532C33.9482 52.9597 33.9482 52.9661 33.9482 52.9726C33.9482 52.9791 33.9482 52.9855 33.9482 52.992C33.9482 52.9984 33.9482 53.0049 33.9482 53.0113C33.9482 53.0177 33.9482 53.0241 33.9482 53.0305C33.9482 53.0369 33.9482 53.0433 33.9482 53.0497C33.9482 53.0561 33.9482 53.0625 33.9482 53.0688C33.9482 53.0752 33.9482 53.0815 33.9482 53.0879C33.9482 53.0942 33.9482 53.1005 33.9482 53.1069C33.9482 53.1132 33.9482 53.1195 33.9482 53.1258C33.9482 53.1321 33.9482 53.1384 33.9482 53.1446C33.9482 53.1509 33.9482 53.1572 33.9482 53.1634C33.9482 53.1697 33.9482 53.1759 33.9482 53.1821C33.9482 53.1884 33.9482 53.1946 33.9482 53.2008C33.9482 53.207 33.9482 53.2132 33.9482 53.2194C33.9482 53.2256 33.9482 53.2317 33.9482 53.2379C33.9482 53.2441 33.9482 53.2502 33.9482 53.2564C33.9482 53.2625 33.9482 53.2686 33.9482 53.2748C33.9482 53.2809 33.9482 53.287 33.9482 53.2931C33.9482 53.2992 33.9482 53.3053 33.9482 53.3114C33.9482 53.3174 33.9482 53.3235 33.9482 53.3296C33.9482 53.3356 33.9482 53.3417 33.9482 53.3477C33.9482 53.3537 33.9482 53.3598 33.9482 53.3658C33.9482 53.3718 33.9482 53.3778 33.9482 53.3838C33.9482 53.3898 33.9482 53.3958 33.9482 53.4017C33.9482 53.4077 33.9482 53.4137 33.9482 53.4196C33.9482 53.4256 33.9482 53.4315 33.9482 53.4375C33.9482 53.4434 33.9482 53.4493 33.9482 53.4552C33.9482 53.4611 33.9482 53.467 33.9482 53.4729C33.9482 53.4788 33.9482 53.4847 33.9482 53.4906C33.9482 53.4964 33.9482 53.5023 33.9482 53.5081C33.9482 53.514 33.9482 53.5198 33.9482 53.5257C33.9482 53.5315 33.9482 53.5373 33.9482 53.5431C33.9482 53.5489 33.9482 53.5547 33.9482 53.5605C33.9482 53.5663 33.9482 53.5721 33.9482 53.5778C33.9482 53.5836 33.9482 53.5894 33.9482 53.5951C33.9482 53.6009 33.9482 53.6066 33.9482 53.6123C33.9482 53.618 33.9482 53.6238 33.9482 53.6295C33.9482 53.6352 33.9482 53.6409 33.9482 53.6466C33.9482 53.6522 33.9482 53.6579 33.9482 53.6636C33.9482 53.6693 33.9482 53.6749 33.9482 53.6806C33.9482 53.6862 33.9482 53.6918 33.9482 53.6975C33.9482 53.7031 33.9482 53.7087 33.9482 53.7143C33.9482 53.7199 33.9482 53.7255 33.9482 53.7311C33.9482 53.7367 33.9482 53.7423 33.9482 53.7478C33.9482 53.7534 33.9482 53.759 33.9482 53.7645C33.9482 53.7701 33.9482 53.7756 33.9482 53.7811C33.9482 53.7866 33.9482 53.7922 33.9482 53.7977C33.9482 53.8032 33.9482 53.8087 33.9482 53.8142C33.9482 53.8197 33.9482 53.8251 33.9482 53.8306C33.9482 53.8361 33.9482 53.8415 33.9482 53.847C33.9482 53.8524 33.9482 53.8579 33.9482 53.8633C33.9482 53.8687 33.9482 53.8741 33.9482 53.8796C33.9482 53.885 33.9482 53.8904 33.9482 53.8958C33.9482 53.9012 33.9482 53.9065 33.9482 53.9119C33.9482 53.9173 33.9482 53.9226 33.9482 53.928C33.9482 53.9334 33.9482 53.9387 33.9482 53.944C33.9482 53.9494 33.9482 53.9547 33.9482 53.96C33.9482 53.9653 33.9482 53.9706 33.9482 53.9759C33.9482 53.9812 33.9482 53.9865 33.9482 53.9918C33.9482 53.9971 33.9482 54.0023 33.9482 54.0076C33.9482 54.0128 33.9482 54.0181 33.9482 54.0233C33.9482 54.0286 33.9482 54.0338 33.9482 54.039C33.9482 54.0442 33.9482 54.0495 33.9482 54.0547C33.9482 54.0599 33.9482 54.0651 33.9482 54.0702C33.9482 54.0754 33.9482 54.0806 33.9482 54.0858C33.9482 54.0909 33.9482 54.0961 33.9482 54.1012C33.9482 54.1064 33.9482 54.1115 33.9482 54.1167C33.9482 54.1218 33.9482 54.1269 33.9482 54.132C33.9482 54.1371 33.9482 54.1422 33.9482 54.1473C33.9482 54.1524 33.9482 54.1575 33.9482 54.1626C33.9482 54.1676 33.9482 54.1727 33.9482 54.1778C33.9482 54.1828 33.9482 54.1879 33.9482 54.1929C33.9482 54.1979 33.9482 54.203 33.9482 54.208C33.9482 54.213 33.9482 54.218 33.9482 54.223C33.9482 54.228 33.9482 54.233 33.9482 54.238C33.9482 54.243 33.9482 54.248 33.9482 54.2529C33.9482 54.2579 33.9482 54.2629 33.9482 54.2678C33.9482 54.2727 33.9482 54.2777 33.9482 54.2826C33.9482 54.2875 33.9482 54.2925 33.9482 54.2974C33.9482 54.3023 33.9482 54.3072 33.9482 54.3121C33.9482 54.317 33.9482 54.3219 33.9482 54.3268C33.9482 54.3316 33.9482 54.3365 33.9482 54.3414C33.9482 54.3462 33.9482 54.3511 33.9482 54.3559C33.9482 54.3608 33.9482 54.3656 33.9482 54.3704C33.9482 54.3752 33.9482 54.3801 33.9482 54.3849C33.9482 54.3897 33.9482 54.3945 33.9482 54.3993C33.9482 54.4041 33.9482 54.4088 33.9482 54.4136C33.9482 54.4184 33.9482 54.4232 33.9482 54.4279C33.9482 54.4327 33.9482 54.4374 33.9482 54.4422C33.9482 54.4469 33.9482 54.4516 33.9482 54.4564C33.9482 54.4611 33.9482 54.4658 33.9482 54.4705C33.9482 54.4752 33.9482 54.4799 33.9482 54.4846C33.9482 54.4893 33.9482 54.494 33.9482 54.4986C33.9482 54.5033 33.9482 54.508 33.9482 54.5126C33.9482 54.5173 33.9482 54.5219 33.9482 54.5266C33.9482 54.5312 33.9482 54.5358 33.9482 54.5405C33.9482 54.5451 33.9482 54.5497 33.9482 54.5543C33.9482 54.5589 33.9482 54.5635 33.9482 54.5681C33.9482 54.5727 33.9482 54.5773 33.9482 54.5818C33.9482 54.5864 33.9482 54.591 33.9482 54.5955C33.9482 54.6001 33.9482 54.6046 33.9482 54.6092C33.9482 54.6137 33.9482 54.6182 33.9482 54.6228C33.9482 54.6273 33.9482 54.6318 33.9482 54.6363C33.9482 54.6408 33.9482 54.6453 33.9482 54.6498C33.9482 54.6543 33.9482 54.6588 33.9482 54.6633C33.9482 54.6677 33.9482 54.6722 33.9482 54.6767C33.9482 54.6811 33.9482 54.6856 33.9482 54.69C33.9482 54.6944 33.9482 54.6989 33.9482 54.7033C33.9482 54.7077 33.9482 54.7122 33.9482 54.7166C33.9482 54.721 33.9482 54.7254 33.9482 54.7298C33.9482 54.7342 33.9482 54.7386 33.9482 54.7429C33.9482 54.7473 33.9482 54.7517 33.9482 54.7561C33.9482 54.7604 33.9482 54.7648 33.9482 54.7691C33.9482 54.7735 33.9482 54.7778 33.9482 54.7821C33.9482 54.7865 33.9482 54.7908 33.9482 54.7951C33.9482 54.7994 33.9482 54.8037 33.9482 54.808C33.9482 54.8124 33.9482 54.8166 33.9482 54.8209C33.9482 54.8252 33.9482 54.8295 33.9482 54.8338C33.9482 54.838 33.9482 54.8423 33.9482 54.8466C33.9482 54.8508 33.9482 54.8551 33.9482 54.8593C33.9482 54.8635 33.9482 54.8678 33.9482 54.872C33.9482 54.8762 33.9482 54.8804 33.9482 54.8847C33.9482 54.8889 33.9482 54.8931 33.9482 54.8973C33.9482 54.9015 33.9482 54.9056 33.9482 54.9098C33.9482 54.914 33.9482 54.9182 33.9482 54.9223C33.9482 54.9265 33.9482 54.9307 33.9482 54.9348C33.9482 54.939 33.9482 54.9431 33.9482 54.9473C33.9482 54.9514 33.9482 54.9555 33.9482 54.9596C33.9482 54.9638 33.9482 54.9679 33.9482 54.972C33.9482 54.9761 33.9482 54.9802 33.9482 54.9843C33.9482 54.9884 33.9482 54.9925 33.9482 54.9965C33.9482 55.0006 33.9482 55.0047 33.9482 55.0087C33.9482 55.0128 33.9482 55.0169 33.9482 55.0209C33.9482 55.025 33.9482 55.029 33.9482 55.033C33.9482 55.0371 33.9482 55.0411 33.9482 55.0451C33.9482 55.0491 33.9482 55.0531 33.9482 55.0572C33.9482 55.0612 33.9482 55.0652 33.9482 55.0691C33.9482 55.0731 33.9482 55.0771 33.9482 55.0811C33.9482 55.0851 33.9482 55.089 33.9482 55.093C33.9482 55.097 33.9482 55.1009 33.9482 55.1049C33.9482 55.1088 33.9482 55.1128 33.9482 55.1167C33.9482 55.1206 33.9482 55.1246 33.9482 55.1285C33.9482 55.1324 33.9482 55.1363 33.9482 55.1402C33.9482 55.1441 33.9482 55.148 33.9482 55.1519C33.9482 55.1558 33.9482 55.1597 33.9482 55.1636C33.9482 55.1675 33.9482 55.1714 33.9482 55.1752C33.9482 55.1791 33.9482 55.1829 33.9482 55.1868C33.9482 55.1907 33.9482 55.1945 33.9482 55.1983C33.9482 55.2022 33.9482 55.206 33.9482 55.2098C33.9482 55.2137 33.9482 55.2175 33.9482 55.2213C33.9482 55.2251 33.9482 55.2289 33.9482 55.2327C33.9482 55.2365 33.9482 55.2403 33.9482 55.2441C33.9482 55.2479 33.9482 55.2517 33.9482 55.2554C33.9482 55.2592 33.9482 55.263 33.9482 55.2667C33.9482 55.2705 33.9482 55.2742 33.9482 55.278C33.9482 55.2817 33.9482 55.2855 33.9482 55.2892C33.9482 55.2929 33.9482 55.2967 33.9482 55.3004C33.9482 55.3041 33.9482 55.3078 33.9482 55.3115C33.9482 55.3152 33.9482 55.3189 33.9482 55.3226C33.9482 55.3263 33.9482 55.33 33.9482 55.3337C33.9482 55.3374 33.9482 55.341 33.9482 55.3447C33.9482 55.3484 33.9482 55.352 33.9482 55.3557C33.9482 55.3594 33.9482 55.363 33.9482 55.3667C33.9482 55.3703 33.9482 55.3739 33.9482 55.3776C33.9482 55.3812 33.9482 55.3848 33.9482 55.3884C33.9482 55.3921 33.9482 55.3957 33.9482 55.3993C33.9482 55.4029 33.9482 55.4065 33.9482 55.4101C33.9482 55.4137 33.9482 55.4173 33.9482 55.4208C33.9482 55.4244 33.9482 55.428 33.9482 55.4316C33.9482 55.4351 33.9482 55.4387 33.9482 55.4423C33.9482 55.4458 33.9482 55.4494 33.9482 55.4529C33.9482 55.4565 33.9482 55.46 33.9482 55.4635C33.9482 55.4671 33.9482 55.4706 33.9482 55.4741C33.9482 55.4776 33.9482 55.4811 33.9482 55.4847C33.9482 55.4882 33.9482 55.4917 33.9482 55.4952C33.9482 55.4987 33.9482 55.5022 33.9482 55.5056C33.9482 55.5091 33.9482 55.5126 33.9482 55.5161C33.9482 55.5195 33.9482 55.523 33.9482 55.5265C33.9482 55.5299 33.9482 55.5334 33.9482 55.5368C33.9482 55.5403 33.9482 55.5437 33.9482 55.5472C33.9482 55.5506 33.9482 55.554 33.9482 55.5575C33.9482 55.5609 33.9482 55.5643 33.9482 55.5677C33.9482 55.5712 33.9482 55.5746 33.9482 55.578C33.9482 55.5814 33.9482 55.5848 33.9482 55.5882C33.9482 55.5916 33.9482 55.5949 33.9482 55.5983C33.9482 55.6017 33.9482 55.6051 33.9482 55.6084C33.9482 55.6118 33.9482 55.6152 33.9482 55.6185C33.9482 55.6219 33.9482 55.6253 33.9482 55.6286C33.9482 55.632 33.9482 55.6353 33.9482 55.6386C33.9482 55.642 33.9482 55.6453 33.9482 55.6486C33.9482 55.6519 33.9482 55.6553 33.9482 55.6586C33.9482 55.6619 33.9482 55.6652 33.9482 55.6685C33.9482 55.6718 33.9482 55.6751 33.9482 55.6784C33.9482 55.6817 33.9482 55.685 33.9482 55.6883C33.9482 55.6916 33.9482 55.6948 33.9482 55.6981C33.9482 55.7014 33.9482 55.7046 33.9482 55.7079C33.9482 55.7112 33.9482 55.7144 33.9482 55.7177C33.9482 55.7209 33.9482 55.7242 33.9482 55.7274C33.9482 55.7306 33.9482 55.7339 33.9482 55.7371C33.9482 55.7403 33.9482 55.7436 33.9482 55.7468C33.9482 55.75 33.9482 55.7532 33.9482 55.7564C33.9482 55.7596 33.9482 55.7628 33.9482 55.766C33.9482 55.7692 33.9482 55.7724 33.9482 55.7756C33.9482 55.7788 33.9482 55.782 33.9482 55.7852C33.9482 55.7883 33.9482 55.7915 33.9482 55.7947C33.9482 55.7978 33.9482 55.801 33.9482 55.8042C33.9482 55.8073 33.9482 55.8105 33.9482 55.8136C33.9482 55.8168 33.9482 55.8199 33.9482 55.8231C33.9482 55.8262 33.9482 55.8293 33.9482 55.8325C33.9482 55.8356 33.9482 55.8387 33.9482 55.8418C33.9482 55.8449 33.9482 55.8481 33.9482 55.8512C33.9482 55.8543 33.9482 55.8574 33.9482 55.8605C33.9482 55.8636 33.9482 55.8667 33.9482 55.8698C33.9482 55.8728 33.9482 55.8759 33.9482 55.879C33.9482 55.8821 33.9482 55.8852 33.9482 55.8882C33.9482 55.8913 33.9482 55.8944 33.9482 55.8974C33.9482 55.9005 33.9482 55.9035 33.9482 55.9066C33.9482 55.9096 33.9482 55.9127 33.9482 55.9157C33.9482 55.9188 33.9482 55.9218 33.9482 55.9248C33.9482 55.9279 33.9482 55.9309 33.9482 55.9339C33.9482 55.937 33.9482 55.94 33.9482 55.943C33.9482 55.946 33.9482 55.949 33.9482 55.952C33.9482 55.955 33.9482 55.958 33.9482 55.961C33.9482 55.964 33.9482 55.967 33.9482 55.97C33.9482 55.973 33.9482 55.976 33.9482 55.9789C33.9482 55.9819 33.9482 55.9849 33.9482 55.9879C33.9482 55.9908 33.9482 55.9938 33.9482 55.9968C33.9482 55.9997 33.9482 56.0027 33.9482 56.0056C33.9482 56.0086 33.9482 56.0115 33.9482 56.0145C33.9482 56.0174 33.9482 56.0204 33.9482 56.0233C33.9482 56.0262 33.9482 56.0292 33.9482 56.0321C33.9482 56.035 33.9482 56.0379 33.9482 56.0408C33.9482 56.0438 33.9482 56.0467 33.9482 56.0496C33.9482 56.0525 33.9482 56.0554 33.9482 56.0583C33.9482 56.0612 33.9482 56.0641 33.9482 56.067C33.9482 56.0699 33.9482 56.0728 33.9482 56.0757C33.9482 56.0785 33.9482 56.0814 33.9482 56.0843C33.9482 56.0872 33.9482 56.0901 33.9482 56.0929C33.9482 56.0958 33.9482 56.0987 33.9482 56.1015C33.9482 56.1044 33.9482 56.1072 33.9482 56.1101C33.9482 56.1129 33.9482 56.1158 33.9482 56.1186C33.9482 56.1215 33.9482 56.1243 33.9482 56.1271C33.9482 56.13 33.9482 56.1328 33.9482 56.1356C33.9482 56.1385 33.9482 56.1413 33.9482 56.1441C33.9482 56.1469 33.9482 56.1498 33.9482 56.1526C33.9482 56.1554 33.9482 56.1582 33.9482 56.161C33.9482 56.1638 33.9482 56.1666 33.9482 56.1694C33.9482 56.1722 33.9482 56.175 33.9482 56.1778C33.9482 56.1806 33.9482 56.1834 33.9482 56.1861C33.9482 56.1889 33.9482 56.1917 33.9482 56.1945C33.9482 56.1973 33.9482 56.2 33.9482 56.2028C33.9482 56.2056 33.9482 56.2083 33.9482 56.2111C33.9482 56.2138 33.9482 56.2166 33.9482 56.2194C33.9482 56.2221 33.9482 56.2249 33.9482 56.2276C33.9482 56.2304 33.9482 56.2331 33.9482 56.2358C33.9482 56.2386 33.9482 56.2413 33.9482 56.244C33.9482 56.2468 33.9482 56.2495 33.9482 56.2522C33.9482 56.255 33.9482 56.2577 33.9482 56.2604C33.9482 56.2631 33.9482 56.2658 33.9482 56.2685C33.9482 56.2712 33.9482 56.274 33.9482 56.2767C33.9482 56.2794 33.9482 56.2821 33.9482 56.2848C33.9482 56.2875 33.9482 56.2902 33.9482 56.2928C33.9482 56.2955 33.9482 56.2982 33.9482 56.3009C33.9482 56.3036 33.9482 56.3063 33.9482 56.309C33.9482 56.3116 33.9482 56.3143 33.9482 56.317C33.9482 56.3197 33.9482 56.3223 33.9482 56.325C33.9482 56.3276 33.9482 56.3303 33.9482 56.333C33.9482 56.3356 33.9482 56.3383 33.9482 56.3409C33.9482 56.3436 33.9482 56.3462 33.9482 56.3489C33.9482 56.3515 33.9482 56.3542 33.9482 56.3568C33.9482 56.3595 33.9482 56.3621 33.9482 56.3647C33.9482 56.3674 33.9482 56.37 33.9482 56.3726C33.9482 56.3752 33.9482 56.3779 33.9482 56.3805C33.9482 56.3831 33.9482 56.3857 33.9482 56.3883C33.9482 56.391 33.9482 56.3936 33.9482 56.3962C33.9482 56.3988 33.9482 56.4014 33.9482 56.404C33.9482 56.4066 33.9482 56.4092 33.9482 56.4118C33.9482 56.4144 33.9482 56.417 33.9482 56.4196C33.9482 56.4222 33.9482 56.4248 33.9482 56.4274C33.9482 56.4299 33.9482 56.4325 33.9482 56.4351C33.9482 56.4377 33.9482 56.4403 33.9482 56.4428C33.9482 56.4454 33.9482 56.448 33.9482 56.4506C33.9482 56.4531 33.9482 56.4557 33.9482 56.4583C33.9482 56.4608 33.9482 56.4634 33.9482 56.466C33.9482 56.4685 33.9482 56.4711 33.9482 56.4736C33.9482 56.4762 33.9482 56.4787 33.9482 56.4813C33.9482 56.4838 33.9482 56.4864 33.9482 56.4889C33.9482 56.4915 33.9482 56.494 33.9482 56.4965C33.9482 56.4991 33.9482 56.5016 33.9482 56.5042C33.9482 56.5067 33.9482 56.5092 33.9482 56.5117C33.9482 56.5143 33.9482 56.5168 33.9482 56.5193C33.9482 56.5218 33.9482 56.5244 33.9482 56.5269C33.9482 56.5294 33.9482 56.5319 33.9482 56.5344C33.9482 56.5369 33.9482 56.5395 33.9482 56.542C33.9482 56.5445 33.9482 56.547 33.9482 56.5495C33.9482 56.552 33.9482 56.5545 33.9482 56.557C33.9482 56.5595 33.9482 56.562 33.9482 56.5645C33.9482 56.567 33.9482 56.5695 33.9482 56.572C33.9482 56.5745 33.9482 56.5769 33.9482 56.5794C33.9482 56.5819 33.9482 56.5844 33.9482 56.5869C33.9482 56.5894 33.9482 56.5918 33.9482 56.5943C33.9482 56.5968 33.9482 56.5993 33.9482 56.6017C33.9482 56.6042 33.9482 56.6067 33.9482 56.6092C33.9482 56.6116 33.9482 56.6141 33.9482 56.6166C33.9482 56.619 33.9482 56.6215 33.9482 56.6239C33.9482 56.6264 33.9482 56.6289 33.9482 56.6313C33.9482 56.6338 33.9482 56.6362 33.9482 56.6387C33.9482 56.6411 33.9482 56.6436 33.9482 56.646C33.9482 56.6485 33.9482 56.6509 33.9482 56.6534C33.9482 56.6558 33.9482 56.6583 33.9482 56.6607C33.9482 56.6631 33.9482 56.6656 33.9482 56.668C33.9482 56.6705 33.9482 56.6729 33.9482 56.6753C33.9482 56.6778 33.9482 56.6802 33.9482 56.6826C33.9482 56.6851 33.9482 56.6875 33.9482 56.6899C33.9482 56.6923 33.9482 56.6948 33.9482 56.6972C33.9482 56.6996 33.9482 56.702 33.9482 56.7044C33.9482 56.7069 33.9482 56.7093 33.9482 56.7117C33.9482 56.7141 33.9482 56.7165 33.9482 56.7189C33.9482 56.7214 33.9482 56.7238 33.9482 56.7262C33.9482 56.7286 33.9482 56.731 33.9482 56.7334C33.9482 56.7358 33.9482 56.7382 33.9482 56.7406C33.9482 56.743 33.9482 56.7454 33.9482 56.7478C33.9482 56.7502 33.9482 56.7526 33.9482 56.755C33.9482 56.7574 33.9482 56.7598 33.9482 56.7622C33.9482 56.7646 33.9482 56.767 33.9482 56.7694C33.9482 56.7718 33.9482 56.7742 33.9482 56.7765C33.9482 56.7789 33.9482 56.7813 33.9482 56.7837C33.9482 56.7861 33.9482 56.7885 33.9482 56.7909C33.9482 56.7932 33.9482 56.7956 33.9482 56.798C33.9482 56.8004 33.9482 56.8028 33.9482 56.8051C33.9482 56.8075 33.9482 56.8099 33.9482 56.8123C33.9482 56.8146 33.9482 56.817 33.9482 56.8194C33.9482 56.8218 33.9482 56.8241 33.9482 56.8265C33.9482 56.8289 33.9482 56.8312 33.9482 56.8336C33.9482 56.836 33.9482 56.8383 33.9482 56.8407C33.9482 56.8431 33.9482 56.8454 33.9482 56.8478C33.9482 56.8502 33.9482 56.8525 33.9482 56.8549C33.9482 56.8573 33.9482 56.8596 33.9482 56.862C33.9482 56.8643 33.9482 56.8667 33.9482 56.869C33.9482 56.8714 33.9482 56.8738 33.9482 56.8761C33.9482 56.8785 33.9482 56.8808 33.9482 56.8832C33.9482 56.8855 33.9482 56.8879 33.9482 56.8902C33.9482 56.8926 33.9482 56.8949 33.9482 56.8973C33.9482 56.8996 33.9482 56.902 33.9482 56.9043C33.9482 56.9067 33.9482 56.909 33.9482 56.9114C33.9482 56.9137 33.9482 56.9161 33.9482 56.9184C33.9482 56.9207 33.9482 56.9231 33.9482 56.9254C33.9482 56.9278 33.9482 56.9301 33.9482 56.9325C33.9482 56.9348 33.9482 56.9371 33.9482 56.9395C33.9482 56.9418 33.9482 56.9442 33.9482 56.9465C33.9482 56.9488 33.9482 56.9512 33.9482 56.9535C33.9482 56.9558 33.9482 56.9582 33.9482 56.9605C33.9482 56.9628 33.9482 56.9652 33.9482 56.9675C33.9482 56.9698 33.9482 56.9722 33.9482 56.9745C33.9482 56.9768 33.9482 56.9792 33.9482 56.9815C33.9482 56.9838 33.9482 56.9862 33.9482 56.9885C33.9482 56.9908 33.9482 56.9932 33.9482 56.9955C33.9482 56.9978 33.9482 57.0002 33.9482 57.0025C33.9482 57.0048 33.9482 57.0071 33.9482 57.0095C33.9482 57.0118 33.9482 57.0141 33.9482 57.0165C33.9482 57.0188 33.9482 57.0211 33.9482 57.0234C33.9482 57.0258 33.9482 57.0281 33.9482 57.0304C33.9482 57.0327 33.9482 57.0351 33.9482 57.0374C33.9482 57.0397 33.9482 57.042 33.9482 57.0444C33.9482 57.0467 33.9482 57.049 33.9482 57.0513C33.9482 57.0537 33.9482 57.056 33.9482 57.0583C33.9482 57.0606 33.9482 57.063 33.9482 57.0653C33.9482 57.0676 33.9482 57.0699 33.9482 57.0723C33.9482 57.0746 33.9482 57.0769 33.9482 57.0792C33.9482 57.0815 33.9482 57.0839 33.9482 57.0862C33.9482 57.0885 33.9482 57.0908 33.9482 57.0932C33.9482 57.0955 33.9482 57.0978 33.9482 57.1001C33.9482 57.1024 33.9482 57.1048 33.9482 57.1071C33.9482 57.1094 33.9482 57.1117 33.9482 57.1141C33.9482 57.1164 33.9482 57.1187 33.9482 57.121C33.9482 57.1233 33.9482 57.1257 33.9482 57.128C33.9482 57.1303 33.9482 57.1326 33.9482 57.135C33.9482 57.1373 33.9482 57.1396 33.9482 57.1419C33.9482 57.1443 33.9482 57.1466 33.9482 57.1489C33.9482 57.1512 33.9482 57.1535 33.9482 57.1559C33.9482 57.1582 33.9482 57.1605 33.9482 57.1628C33.9482 57.1652 33.9482 57.1675 33.9482 57.1698C33.9482 57.1721 33.9482 57.1745 33.9482 57.1768C33.9482 57.1791 33.9482 57.1814 33.9482 57.1838C33.9482 57.1861 33.9482 57.1884 33.9482 57.1907C33.9482 57.1931 33.9482 57.1954 33.9482 57.1977C33.9482 57.2001 33.9482 57.2024 33.9482 57.2047C33.9482 57.207 33.9482 57.2094 33.9482 57.2117C33.9482 57.214 33.9482 57.2164 33.9482 57.2187C33.9482 57.221 33.9482 57.2233 33.9482 57.2257C33.9482 57.228 33.9482 57.2303 33.9482 57.2327C33.9482 57.235 33.9482 57.2373 33.9482 57.2397C33.9482 57.242 33.9482 57.2443 33.9482 57.2467C33.9482 57.249 33.9482 57.2513 33.9482 57.2537C33.9482 57.256 33.9482 57.2584 33.9482 57.2607C33.9482 57.263 33.9482 57.2654 33.9482 57.2677C33.9482 57.27 33.9482 57.2724 33.9482 57.2747C33.9482 57.2771 33.9482 57.2794 33.9482 57.2817C33.9482 57.2841 33.9482 57.2864 33.9482 57.2888C33.9482 57.2911 33.9482 57.2935 33.9482 57.2958C33.9482 57.2981 33.9482 57.3005 33.9482 57.3028C33.9482 57.3052 33.9482 57.3075 33.9482 57.3099C33.9482 57.3122 33.9482 57.3146 33.9482 57.3169C33.9482 57.3193 33.9482 57.3216 33.9482 57.324C33.9482 57.3263 33.9482 57.3287 33.9482 57.331C33.9482 57.3334 33.9482 57.3357 33.9482 57.3381C33.9482 57.3404 33.9482 57.3428 33.9482 57.3452C33.9482 57.3475 33.9482 57.3499 33.9482 57.3522C33.9482 57.3546 33.9482 57.357 33.9482 57.3593C33.9482 57.3617 33.9482 57.364 33.9482 57.3664C33.9482 57.3688 33.9482 57.3711 33.9482 57.3735C33.9482 57.3759 33.9482 57.3782 33.9482 57.3806C33.9482 57.383 33.9482 57.3853 33.9482 57.3877C33.9482 57.3901 33.9482 57.3924 33.9482 57.3948C33.9482 57.3972 33.9482 57.3996 33.9482 57.4019C33.9482 57.4043 33.9482 57.4067 33.9482 57.4091C33.9482 57.4114 33.9482 57.4138 33.9482 57.4162C33.9482 57.4186 33.9482 57.421 33.9482 57.4234C33.9482 57.4257 33.9482 57.4281 33.9482 57.4305C33.9482 57.4329 33.9482 57.4353 33.9482 57.4377C33.9482 57.4401 33.9482 57.4425 33.9482 57.4448C33.9482 57.4472 33.9482 57.4496 33.9482 57.452C33.9482 57.4544 33.9482 57.4568 33.9482 57.4592C33.9482 57.4616 33.9482 57.464 33.9482 57.4664C33.9482 57.4688 33.9482 57.4712 33.9482 57.4736C33.9482 57.476 33.9482 57.4784 33.9482 57.4808C33.9482 57.4832 33.9482 57.4856 33.9482 57.4881C33.9482 57.4905 33.9482 57.4929 33.9482 57.4953C33.9482 57.4977 33.9482 57.5001 33.9482 57.5025C33.9482 57.505 33.9482 57.5074 33.9482 57.5098C33.9482 57.5122 33.9482 57.5146 33.9482 57.5171C33.9482 57.5195 33.9482 57.5219 33.9482 57.5243C33.9482 57.5268 33.9482 57.5292 33.9482 57.5316C33.9482 57.5341 33.9482 57.5365 33.9482 57.5389C33.9482 57.5414 33.9482 57.5438 33.9482 57.5462C33.9482 57.5487 33.9482 57.5511 33.9482 57.5535C33.9482 57.556 33.9482 57.5584 33.9482 57.5609C33.9482 57.5633 33.9482 57.5658 33.9482 57.5682C33.9482 57.5707 33.9482 57.5731 33.9482 57.5756C33.9482 57.578 33.9482 57.5805 33.9482 57.5829C33.9482 57.5854 33.9482 57.5879 33.9482 57.5903C33.9482 57.5928 33.9482 57.5952 33.9482 57.5977C33.9482 57.6002 33.9482 57.6026 33.9482 57.6051C33.9482 57.6076 33.9482 57.6101 33.9482 57.6125C33.9482 57.615 33.9482 57.6175 33.9482 57.62C33.9482 57.6224 33.9482 57.6249 33.9482 57.6274C33.9482 57.6299 33.9482 57.6324 33.9482 57.6348C33.9482 57.6373 33.9482 57.6398 33.9482 57.6423C33.9482 57.6448 33.9482 57.6473 33.9482 57.6498C33.9482 57.6523 33.9482 57.6548 33.9482 57.6573C33.9482 57.6598 33.9482 57.6623 33.9482 57.6648C33.9482 57.6673 33.9482 57.6698 33.9482 57.6723C33.9482 57.6748 33.9482 57.6773 33.9482 57.6799C33.9482 57.6824 33.9482 57.6849 33.9482 57.6874C33.9482 57.6899 33.9482 57.6925 33.9482 57.695C33.9482 57.6975 33.9482 57.7 33.9482 57.7026C33.9482 57.7051 33.9482 57.7076 33.9482 57.7102C33.9482 57.7127 33.9482 57.7152 33.9482 57.7178C33.9482 57.7203 33.9482 57.7228 33.9482 57.7254C33.9482 57.7279 33.9482 57.7305 33.9482 57.733C33.9482 57.7356 33.9482 57.7381 33.9482 57.7407C33.9482 57.7432 33.9482 57.7458 33.9482 57.7484C33.9482 57.7509 33.9482 57.7535 33.9482 57.7561C33.9482 57.7586 33.9482 57.7612 33.9482 57.7638C33.9482 57.7663 33.9482 57.7689 33.9482 57.7715C33.9482 57.7741 33.9482 57.7766 33.9482 57.7792C33.9482 57.7818 33.9482 57.7844 33.9482 57.787C33.9482 57.7896 33.9482 57.7922 33.9482 57.7948C33.9482 57.7973 33.9482 57.7999 33.9482 57.8025C33.9482 57.8051 33.9482 57.8077 33.9482 57.8103C33.9482 57.813 33.9482 57.8156 33.9482 57.8182C33.9482 57.8208 33.9482 57.8234 33.9482 57.826C33.9482 57.8286 33.9482 57.8312 33.9482 57.8339C33.9482 57.8365 33.9482 57.8391 33.9482 57.8417C33.9482 57.8444 33.9482 57.847 33.9482 57.8496C33.9482 57.8523 33.9482 57.8549 33.9482 57.8576C33.9482 57.8602 33.9482 57.8628 33.9482 57.8655C33.9482 57.8681 33.9482 57.8708 33.9482 57.8734C33.9482 57.8761 33.9482 57.8788 33.9482 57.8814C33.9482 57.8841 33.9482 57.8867 33.9482 57.8894C33.9482 57.8921 33.9482 57.8947 33.9482 57.8974C33.9482 57.9001 33.9482 57.9028 33.9482 57.9054C33.9482 57.9081 33.9482 57.9108 33.9482 57.9135C33.9482 57.9162 33.9482 57.9189 33.9482 57.9216C33.9482 57.9242 33.9482 57.9269 33.9482 57.9296C33.9482 57.9323 33.9482 57.935 33.9482 57.9378C33.9482 57.9405 33.9482 57.9432 33.9482 57.9459C33.9482 57.9486 33.9482 57.9513 33.9482 57.954C33.9482 57.9567 33.9482 57.9595 33.9482 57.9622C33.9482 57.9649 33.9482 57.9677 33.9482 57.9704C33.9482 57.9731 33.9482 57.9759 33.9482 57.9786C33.9482 57.9813 33.9482 57.9841 33.9482 57.9868C33.9482 57.9896 33.9482 57.9923 33.9482 57.9951C33.9482 57.9978 33.9482 58.0006 33.9482 58.0034C33.9482 58.0061 33.9482 58.0089 33.9482 58.0117C33.9482 58.0144 33.9482 58.0172 33.9482 58.02C33.9482 58.0228 33.9482 58.0255 33.9482 58.0283H35.9482ZM34.9482 53.6533C39.3908 53.6533 38.9656 53.6533 40.3232 53.6533V51.6533C38.9656 51.6533 39.3908 51.6533 34.9482 51.6533V53.6533ZM40.3232 53.6533H45.6982V51.6533H40.3232V53.6533ZM45.6982 53.6533C47.0559 53.6533 48.6325 53.6533 51.0732 53.6533V51.6533C48.6325 51.6533 47.0559 51.6533 45.6982 51.6533L45.6982 53.6533ZM50.0732 52.6533C50.0732 52.6572 50.0732 52.6611 50.0732 52.6649C50.0732 52.6688 50.0732 52.6727 50.0732 52.6765C50.0732 52.6804 50.0732 52.6843 50.0732 52.6882C50.0732 52.692 50.0732 52.6959 50.0732 52.6998C50.0732 52.7036 50.0732 52.7075 50.0732 52.7114C50.0732 52.7153 50.0732 52.7191 50.0732 52.723C50.0732 52.7269 50.0732 52.7307 50.0732 52.7346C50.0732 52.7385 50.0732 52.7423 50.0732 52.7462C50.0732 52.7501 50.0732 52.754 50.0732 52.7578C50.0732 52.7617 50.0732 52.7656 50.0732 52.7694C50.0732 52.7733 50.0732 52.7772 50.0732 52.781C50.0732 52.7849 50.0732 52.7888 50.0732 52.7927C50.0732 52.7965 50.0732 52.8004 50.0732 52.8043C50.0732 52.8081 50.0732 52.812 50.0732 52.8159C50.0732 52.8197 50.0732 52.8236 50.0732 52.8275C50.0732 52.8313 50.0732 52.8352 50.0732 52.8391C50.0732 52.8429 50.0732 52.8468 50.0732 52.8507C50.0732 52.8545 50.0732 52.8584 50.0732 52.8623C50.0732 52.8662 50.0732 52.87 50.0732 52.8739C50.0732 52.8778 50.0732 52.8816 50.0732 52.8855C50.0732 52.8894 50.0732 52.8932 50.0732 52.8971C50.0732 52.901 50.0732 52.9048 50.0732 52.9087C50.0732 52.9126 50.0732 52.9164 50.0732 52.9203C50.0732 52.9242 50.0732 52.928 50.0732 52.9319C50.0732 52.9358 50.0732 52.9396 50.0732 52.9435C50.0732 52.9474 50.0732 52.9512 50.0732 52.9551C50.0732 52.959 50.0732 52.9628 50.0732 52.9667C50.0732 52.9706 50.0732 52.9744 50.0732 52.9783C50.0732 52.9821 50.0732 52.986 50.0732 52.9899C50.0732 52.9937 50.0732 52.9976 50.0732 53.0015C50.0732 53.0053 50.0732 53.0092 50.0732 53.0131C50.0732 53.0169 50.0732 53.0208 50.0732 53.0247C50.0732 53.0285 50.0732 53.0324 50.0732 53.0362C50.0732 53.0401 50.0732 53.044 50.0732 53.0478C50.0732 53.0517 50.0732 53.0556 50.0732 53.0594C50.0732 53.0633 50.0732 53.0671 50.0732 53.071C50.0732 53.0749 50.0732 53.0787 50.0732 53.0826C50.0732 53.0865 50.0732 53.0903 50.0732 53.0942C50.0732 53.098 50.0732 53.1019 50.0732 53.1058C50.0732 53.1096 50.0732 53.1135 50.0732 53.1173C50.0732 53.1212 50.0732 53.1251 50.0732 53.1289C50.0732 53.1328 50.0732 53.1366 50.0732 53.1405C50.0732 53.1444 50.0732 53.1482 50.0732 53.1521C50.0732 53.1559 50.0732 53.1598 50.0732 53.1637C50.0732 53.1675 50.0732 53.1714 50.0732 53.1752C50.0732 53.1791 50.0732 53.1829 50.0732 53.1868C50.0732 53.1907 50.0732 53.1945 50.0732 53.1984C50.0732 53.2022 50.0732 53.2061 50.0732 53.2099C50.0732 53.2138 50.0732 53.2177 50.0732 53.2215C50.0732 53.2254 50.0732 53.2292 50.0732 53.2331C50.0732 53.2369 50.0732 53.2408 50.0732 53.2447C50.0732 53.2485 50.0732 53.2524 50.0732 53.2562C50.0732 53.2601 50.0732 53.2639 50.0732 53.2678C50.0732 53.2716 50.0732 53.2755 50.0732 53.2793C50.0732 53.2832 50.0732 53.287 50.0732 53.2909C50.0732 53.2948 50.0732 53.2986 50.0732 53.3025C50.0732 53.3063 50.0732 53.3102 50.0732 53.314C50.0732 53.3179 50.0732 53.3217 50.0732 53.3256C50.0732 53.3294 50.0732 53.3333 50.0732 53.3371C50.0732 53.341 50.0732 53.3448 50.0732 53.3487C50.0732 53.3525 50.0732 53.3564 50.0732 53.3602C50.0732 53.3641 50.0732 53.3679 50.0732 53.3718C50.0732 53.3756 50.0732 53.3795 50.0732 53.3833C50.0732 53.3872 50.0732 53.391 50.0732 53.3949C50.0732 53.3987 50.0732 53.4026 50.0732 53.4064C50.0732 53.4103 50.0732 53.4141 50.0732 53.418C50.0732 53.4218 50.0732 53.4256 50.0732 53.4295C50.0732 53.4333 50.0732 53.4372 50.0732 53.441C50.0732 53.4449 50.0732 53.4487 50.0732 53.4526C50.0732 53.4564 50.0732 53.4603 50.0732 53.4641C50.0732 53.4679 50.0732 53.4718 50.0732 53.4756C50.0732 53.4795 50.0732 53.4833 50.0732 53.4872C50.0732 53.491 50.0732 53.4948 50.0732 53.4987C50.0732 53.5025 50.0732 53.5064 50.0732 53.5102C50.0732 53.5141 50.0732 53.5179 50.0732 53.5217C50.0732 53.5256 50.0732 53.5294 50.0732 53.5333C50.0732 53.5371 50.0732 53.5409 50.0732 53.5448C50.0732 53.5486 50.0732 53.5525 50.0732 53.5563C50.0732 53.5601 50.0732 53.564 50.0732 53.5678C50.0732 53.5716 50.0732 53.5755 50.0732 53.5793C50.0732 53.5832 50.0732 53.587 50.0732 53.5908C50.0732 53.5947 50.0732 53.5985 50.0732 53.6023C50.0732 53.6062 50.0732 53.61 50.0732 53.6138C50.0732 53.6177 50.0732 53.6215 50.0732 53.6253C50.0732 53.6292 50.0732 53.633 50.0732 53.6368C50.0732 53.6407 50.0732 53.6445 50.0732 53.6483C50.0732 53.6522 50.0732 53.656 50.0732 53.6598C50.0732 53.6637 50.0732 53.6675 50.0732 53.6713C50.0732 53.6752 50.0732 53.679 50.0732 53.6828C50.0732 53.6867 50.0732 53.6905 50.0732 53.6943C50.0732 53.6981 50.0732 53.702 50.0732 53.7058C50.0732 53.7096 50.0732 53.7135 50.0732 53.7173C50.0732 53.7211 50.0732 53.7249 50.0732 53.7288C50.0732 53.7326 50.0732 53.7364 50.0732 53.7402C50.0732 53.7441 50.0732 53.7479 50.0732 53.7517C50.0732 53.7555 50.0732 53.7594 50.0732 53.7632C50.0732 53.767 50.0732 53.7708 50.0732 53.7747C50.0732 53.7785 50.0732 53.7823 50.0732 53.7861C50.0732 53.79 50.0732 53.7938 50.0732 53.7976C50.0732 53.8014 50.0732 53.8052 50.0732 53.8091C50.0732 53.8129 50.0732 53.8167 50.0732 53.8205C50.0732 53.8243 50.0732 53.8282 50.0732 53.832C50.0732 53.8358 50.0732 53.8396 50.0732 53.8434C50.0732 53.8473 50.0732 53.8511 50.0732 53.8549C50.0732 53.8587 50.0732 53.8625 50.0732 53.8663C50.0732 53.8702 50.0732 53.874 50.0732 53.8778C50.0732 53.8816 50.0732 53.8854 50.0732 53.8892C50.0732 53.893 50.0732 53.8969 50.0732 53.9007C50.0732 53.9045 50.0732 53.9083 50.0732 53.9121C50.0732 53.9159 50.0732 53.9197 50.0732 53.9236C50.0732 53.9274 50.0732 53.9312 50.0732 53.935C50.0732 53.9388 50.0732 53.9426 50.0732 53.9464C50.0732 53.9502 50.0732 53.954 50.0732 53.9578C50.0732 53.9616 50.0732 53.9655 50.0732 53.9693C50.0732 53.9731 50.0732 53.9769 50.0732 53.9807C50.0732 53.9845 50.0732 53.9883 50.0732 53.9921C50.0732 53.9959 50.0732 53.9997 50.0732 54.0035C50.0732 54.0073 50.0732 54.0111 50.0732 54.0149C50.0732 54.0187 50.0732 54.0225 50.0732 54.0263C50.0732 54.0301 50.0732 54.0339 50.0732 54.0377C50.0732 54.0415 50.0732 54.0453 50.0732 54.0491C50.0732 54.0529 50.0732 54.0567 50.0732 54.0605C50.0732 54.0643 50.0732 54.0681 50.0732 54.0719C50.0732 54.0757 50.0732 54.0795 50.0732 54.0833C50.0732 54.0871 50.0732 54.0909 50.0732 54.0947C50.0732 54.0985 50.0732 54.1023 50.0732 54.1061C50.0732 54.1099 50.0732 54.1137 50.0732 54.1175C50.0732 54.1213 50.0732 54.1251 50.0732 54.1289C50.0732 54.1327 50.0732 54.1365 50.0732 54.1402C50.0732 54.144 50.0732 54.1478 50.0732 54.1516C50.0732 54.1554 50.0732 54.1592 50.0732 54.163C50.0732 54.1668 50.0732 54.1706 50.0732 54.1744C50.0732 54.1781 50.0732 54.1819 50.0732 54.1857C50.0732 54.1895 50.0732 54.1933 50.0732 54.1971C50.0732 54.2009 50.0732 54.2046 50.0732 54.2084C50.0732 54.2122 50.0732 54.216 50.0732 54.2198C50.0732 54.2236 50.0732 54.2273 50.0732 54.2311C50.0732 54.2349 50.0732 54.2387 50.0732 54.2425C50.0732 54.2463 50.0732 54.25 50.0732 54.2538C50.0732 54.2576 50.0732 54.2614 50.0732 54.2652C50.0732 54.2689 50.0732 54.2727 50.0732 54.2765C50.0732 54.2803 50.0732 54.284 50.0732 54.2878C50.0732 54.2916 50.0732 54.2954 50.0732 54.2991C50.0732 54.3029 50.0732 54.3067 50.0732 54.3105C50.0732 54.3142 50.0732 54.318 50.0732 54.3218C50.0732 54.3256 50.0732 54.3293 50.0732 54.3331C50.0732 54.3369 50.0732 54.3406 50.0732 54.3444C50.0732 54.3482 50.0732 54.3519 50.0732 54.3557C50.0732 54.3595 50.0732 54.3633 50.0732 54.367C50.0732 54.3708 50.0732 54.3746 50.0732 54.3783C50.0732 54.3821 50.0732 54.3859 50.0732 54.3896C50.0732 54.3934 50.0732 54.3971 50.0732 54.4009C50.0732 54.4047 50.0732 54.4084 50.0732 54.4122C50.0732 54.416 50.0732 54.4197 50.0732 54.4235C50.0732 54.4272 50.0732 54.431 50.0732 54.4348C50.0732 54.4385 50.0732 54.4423 50.0732 54.446C50.0732 54.4498 50.0732 54.4536 50.0732 54.4573C50.0732 54.4611 50.0732 54.4648 50.0732 54.4686C50.0732 54.4723 50.0732 54.4761 50.0732 54.4798C50.0732 54.4836 50.0732 54.4874 50.0732 54.4911C50.0732 54.4949 50.0732 54.4986 50.0732 54.5024C50.0732 54.5061 50.0732 54.5099 50.0732 54.5136C50.0732 54.5174 50.0732 54.5211 50.0732 54.5249C50.0732 54.5286 50.0732 54.5324 50.0732 54.5361C50.0732 54.5399 50.0732 54.5436 50.0732 54.5473C50.0732 54.5511 50.0732 54.5548 50.0732 54.5586C50.0732 54.5623 50.0732 54.5661 50.0732 54.5698C50.0732 54.5736 50.0732 54.5773 50.0732 54.581C50.0732 54.5848 50.0732 54.5885 50.0732 54.5923C50.0732 54.596 50.0732 54.5997 50.0732 54.6035C50.0732 54.6072 50.0732 54.611 50.0732 54.6147C50.0732 54.6184 50.0732 54.6222 50.0732 54.6259C50.0732 54.6296 50.0732 54.6334 50.0732 54.6371C50.0732 54.6408 50.0732 54.6446 50.0732 54.6483C50.0732 54.652 50.0732 54.6558 50.0732 54.6595C50.0732 54.6632 50.0732 54.667 50.0732 54.6707C50.0732 54.6744 50.0732 54.6782 50.0732 54.6819C50.0732 54.6856 50.0732 54.6893 50.0732 54.6931C50.0732 54.6968 50.0732 54.7005 50.0732 54.7042C50.0732 54.708 50.0732 54.7117 50.0732 54.7154C50.0732 54.7191 50.0732 54.7229 50.0732 54.7266C50.0732 54.7303 50.0732 54.734 50.0732 54.7378C50.0732 54.7415 50.0732 54.7452 50.0732 54.7489C50.0732 54.7526 50.0732 54.7563 50.0732 54.7601C50.0732 54.7638 50.0732 54.7675 50.0732 54.7712C50.0732 54.7749 50.0732 54.7786 50.0732 54.7824C50.0732 54.7861 50.0732 54.7898 50.0732 54.7935C50.0732 54.7972 50.0732 54.8009 50.0732 54.8046C50.0732 54.8084 50.0732 54.8121 50.0732 54.8158C50.0732 54.8195 50.0732 54.8232 50.0732 54.8269C50.0732 54.8306 50.0732 54.8343 50.0732 54.838C50.0732 54.8417 50.0732 54.8454 50.0732 54.8491C50.0732 54.8528 50.0732 54.8565 50.0732 54.8603C50.0732 54.864 50.0732 54.8677 50.0732 54.8714C50.0732 54.8751 50.0732 54.8788 50.0732 54.8825C50.0732 54.8862 50.0732 54.8899 50.0732 54.8936C50.0732 54.8973 50.0732 54.901 50.0732 54.9047C50.0732 54.9083 50.0732 54.912 50.0732 54.9157C50.0732 54.9194 50.0732 54.9231 50.0732 54.9268C50.0732 54.9305 50.0732 54.9342 50.0732 54.9379C50.0732 54.9416 50.0732 54.9453 50.0732 54.949C50.0732 54.9527 50.0732 54.9564 50.0732 54.96C50.0732 54.9637 50.0732 54.9674 50.0732 54.9711C50.0732 54.9748 50.0732 54.9785 50.0732 54.9822C50.0732 54.9858 50.0732 54.9895 50.0732 54.9932C50.0732 54.9969 50.0732 55.0006 50.0732 55.0043C50.0732 55.0079 50.0732 55.0116 50.0732 55.0153C50.0732 55.019 50.0732 55.0227 50.0732 55.0263C50.0732 55.03 50.0732 55.0337 50.0732 55.0374C50.0732 55.041 50.0732 55.0447 50.0732 55.0484C50.0732 55.0521 50.0732 55.0557 50.0732 55.0594C50.0732 55.0631 50.0732 55.0668 50.0732 55.0704C50.0732 55.0741 50.0732 55.0778 50.0732 55.0814C50.0732 55.0851 50.0732 55.0888 50.0732 55.0924C50.0732 55.0961 50.0732 55.0998 50.0732 55.1034C50.0732 55.1071 50.0732 55.1108 50.0732 55.1144C50.0732 55.1181 50.0732 55.1218 50.0732 55.1254C50.0732 55.1291 50.0732 55.1328 50.0732 55.1364C50.0732 55.1401 50.0732 55.1437 50.0732 55.1474C50.0732 55.151 50.0732 55.1547 50.0732 55.1584C50.0732 55.162 50.0732 55.1657 50.0732 55.1693C50.0732 55.173 50.0732 55.1766 50.0732 55.1803C50.0732 55.1839 50.0732 55.1876 50.0732 55.1912C50.0732 55.1949 50.0732 55.1985 50.0732 55.2022C50.0732 55.2058 50.0732 55.2095 50.0732 55.2131C50.0732 55.2168 50.0732 55.2204 50.0732 55.2241C50.0732 55.2277 50.0732 55.2314 50.0732 55.235C50.0732 55.2387 50.0732 55.2423 50.0732 55.2459C50.0732 55.2496 50.0732 55.2532 50.0732 55.2569C50.0732 55.2605 50.0732 55.2641 50.0732 55.2678C50.0732 55.2714 50.0732 55.2751 50.0732 55.2787C50.0732 55.2823 50.0732 55.286 50.0732 55.2896C50.0732 55.2932 50.0732 55.2969 50.0732 55.3005C50.0732 55.3041 50.0732 55.3078 50.0732 55.3114C50.0732 55.315 50.0732 55.3186 50.0732 55.3223C50.0732 55.3259 50.0732 55.3295 50.0732 55.3332C50.0732 55.3368 50.0732 55.3404 50.0732 55.344C50.0732 55.3477 50.0732 55.3513 50.0732 55.3549C50.0732 55.3585 50.0732 55.3621 50.0732 55.3658C50.0732 55.3694 50.0732 55.373 50.0732 55.3766C50.0732 55.3802 50.0732 55.3839 50.0732 55.3875C50.0732 55.3911 50.0732 55.3947 50.0732 55.3983C50.0732 55.4019 50.0732 55.4055 50.0732 55.4092C50.0732 55.4128 50.0732 55.4164 50.0732 55.42C50.0732 55.4236 50.0732 55.4272 50.0732 55.4308C50.0732 55.4344 50.0732 55.438 50.0732 55.4416C50.0732 55.4452 50.0732 55.4488 50.0732 55.4525C50.0732 55.4561 50.0732 55.4597 50.0732 55.4633C50.0732 55.4669 50.0732 55.4705 50.0732 55.4741C50.0732 55.4777 50.0732 55.4813 50.0732 55.4849C50.0732 55.4885 50.0732 55.4921 50.0732 55.4956C50.0732 55.4992 50.0732 55.5028 50.0732 55.5064C50.0732 55.51 50.0732 55.5136 50.0732 55.5172C50.0732 55.5208 50.0732 55.5244 50.0732 55.528C50.0732 55.5316 50.0732 55.5352 50.0732 55.5387C50.0732 55.5423 50.0732 55.5459 50.0732 55.5495C50.0732 55.5531 50.0732 55.5567 50.0732 55.5603C50.0732 55.5638 50.0732 55.5674 50.0732 55.571C50.0732 55.5746 50.0732 55.5782 50.0732 55.5817C50.0732 55.5853 50.0732 55.5889 50.0732 55.5925C50.0732 55.5961 50.0732 55.5996 50.0732 55.6032C50.0732 55.6068 50.0732 55.6104 50.0732 55.6139C50.0732 55.6175 50.0732 55.6211 50.0732 55.6246C50.0732 55.6282 50.0732 55.6318 50.0732 55.6353C50.0732 55.6389 50.0732 55.6425 50.0732 55.646C50.0732 55.6496 50.0732 55.6532 50.0732 55.6567C50.0732 55.6603 50.0732 55.6639 50.0732 55.6674C50.0732 55.671 50.0732 55.6745 50.0732 55.6781C50.0732 55.6817 50.0732 55.6852 50.0732 55.6888C50.0732 55.6923 50.0732 55.6959 50.0732 55.6994C50.0732 55.703 50.0732 55.7066 50.0732 55.7101C50.0732 55.7137 50.0732 55.7172 50.0732 55.7208C50.0732 55.7243 50.0732 55.7279 50.0732 55.7314C50.0732 55.735 50.0732 55.7385 50.0732 55.742C50.0732 55.7456 50.0732 55.7491 50.0732 55.7527C50.0732 55.7562 50.0732 55.7598 50.0732 55.7633C50.0732 55.7669 50.0732 55.7704 50.0732 55.7739C50.0732 55.7775 50.0732 55.781 50.0732 55.7845C50.0732 55.7881 50.0732 55.7916 50.0732 55.7951C50.0732 55.7987 50.0732 55.8022 50.0732 55.8057C50.0732 55.8093 50.0732 55.8128 50.0732 55.8163C50.0732 55.8199 50.0732 55.8234 50.0732 55.8269C50.0732 55.8305 50.0732 55.834 50.0732 55.8375C50.0732 55.841 50.0732 55.8446 50.0732 55.8481C50.0732 55.8516 50.0732 55.8551 50.0732 55.8586C50.0732 55.8622 50.0732 55.8657 50.0732 55.8692C50.0732 55.8727 50.0732 55.8762 50.0732 55.8797C50.0732 55.8833 50.0732 55.8868 50.0732 55.8903C50.0732 55.8938 50.0732 55.8973 50.0732 55.9008C50.0732 55.9043 50.0732 55.9078 50.0732 55.9114C50.0732 55.9149 50.0732 55.9184 50.0732 55.9219C50.0732 55.9254 50.0732 55.9289 50.0732 55.9324C50.0732 55.9359 50.0732 55.9394 50.0732 55.9429C50.0732 55.9464 50.0732 55.9499 50.0732 55.9534C50.0732 55.9569 50.0732 55.9604 50.0732 55.9639C50.0732 55.9674 50.0732 55.9709 50.0732 55.9744C50.0732 55.9779 50.0732 55.9814 50.0732 55.9849C50.0732 55.9883 50.0732 55.9918 50.0732 55.9953C50.0732 55.9988 50.0732 56.0023 50.0732 56.0058C50.0732 56.0093 50.0732 56.0128 50.0732 56.0162C50.0732 56.0197 50.0732 56.0232 50.0732 56.0267C50.0732 56.0302 50.0732 56.0337 50.0732 56.0371C50.0732 56.0406 50.0732 56.0441 50.0732 56.0476C50.0732 56.051 50.0732 56.0545 50.0732 56.058C50.0732 56.0615 50.0732 56.0649 50.0732 56.0684C50.0732 56.0719 50.0732 56.0754 50.0732 56.0788C50.0732 56.0823 50.0732 56.0858 50.0732 56.0892C50.0732 56.0927 50.0732 56.0962 50.0732 56.0996C50.0732 56.1031 50.0732 56.1066 50.0732 56.11C50.0732 56.1135 50.0732 56.1169 50.0732 56.1204C50.0732 56.1239 50.0732 56.1273 50.0732 56.1308C50.0732 56.1342 50.0732 56.1377 50.0732 56.1411C50.0732 56.1446 50.0732 56.148 50.0732 56.1515C50.0732 56.1549 50.0732 56.1584 50.0732 56.1618C50.0732 56.1653 50.0732 56.1687 50.0732 56.1722C50.0732 56.1756 50.0732 56.1791 50.0732 56.1825C50.0732 56.186 50.0732 56.1894 50.0732 56.1929C50.0732 56.1963 50.0732 56.1997 50.0732 56.2032C50.0732 56.2066 50.0732 56.21 50.0732 56.2135C50.0732 56.2169 50.0732 56.2204 50.0732 56.2238C50.0732 56.2272 50.0732 56.2307 50.0732 56.2341C50.0732 56.2375 50.0732 56.2409 50.0732 56.2444C50.0732 56.2478 50.0732 56.2512 50.0732 56.2546C50.0732 56.2581 50.0732 56.2615 50.0732 56.2649C50.0732 56.2683 50.0732 56.2718 50.0732 56.2752C50.0732 56.2786 50.0732 56.282 50.0732 56.2854C50.0732 56.2889 50.0732 56.2923 50.0732 56.2957C50.0732 56.2991 50.0732 56.3025 50.0732 56.3059C50.0732 56.3093 50.0732 56.3128 50.0732 56.3162C50.0732 56.3196 50.0732 56.323 50.0732 56.3264C50.0732 56.3298 50.0732 56.3332 50.0732 56.3366C50.0732 56.34 50.0732 56.3434 50.0732 56.3468C50.0732 56.3502 50.0732 56.3536 50.0732 56.357C50.0732 56.3604 50.0732 56.3638 50.0732 56.3672C50.0732 56.3706 50.0732 56.374 50.0732 56.3774C50.0732 56.3808 50.0732 56.3842 50.0732 56.3876C50.0732 56.3909 50.0732 56.3943 50.0732 56.3977C50.0732 56.4011 50.0732 56.4045 50.0732 56.4079C50.0732 56.4113 50.0732 56.4146 50.0732 56.418C50.0732 56.4214 50.0732 56.4248 50.0732 56.4282C50.0732 56.4316 50.0732 56.4349 50.0732 56.4383C50.0732 56.4417 50.0732 56.4451 50.0732 56.4484C50.0732 56.4518 50.0732 56.4552 50.0732 56.4585C50.0732 56.4619 50.0732 56.4653 50.0732 56.4687C50.0732 56.472 50.0732 56.4754 50.0732 56.4788C50.0732 56.4821 50.0732 56.4855 50.0732 56.4888C50.0732 56.4922 50.0732 56.4956 50.0732 56.4989C50.0732 56.5023 50.0732 56.5056 50.0732 56.509C50.0732 56.5124 50.0732 56.5157 50.0732 56.5191C50.0732 56.5224 50.0732 56.5258 50.0732 56.5291C50.0732 56.5325 50.0732 56.5358 50.0732 56.5392C50.0732 56.5425 50.0732 56.5459 50.0732 56.5492C50.0732 56.5526 50.0732 56.5559 50.0732 56.5592C50.0732 56.5626 50.0732 56.5659 50.0732 56.5693C50.0732 56.5726 50.0732 56.5759 50.0732 56.5793C50.0732 56.5826 50.0732 56.586 50.0732 56.5893C50.0732 56.5926 50.0732 56.596 50.0732 56.5993C50.0732 56.6026 50.0732 56.6059 50.0732 56.6093C50.0732 56.6126 50.0732 56.6159 50.0732 56.6192C50.0732 56.6226 50.0732 56.6259 50.0732 56.6292C50.0732 56.6325 50.0732 56.6359 50.0732 56.6392C50.0732 56.6425 50.0732 56.6458 50.0732 56.6491C50.0732 56.6524 50.0732 56.6558 50.0732 56.6591C50.0732 56.6624 50.0732 56.6657 50.0732 56.669C50.0732 56.6723 50.0732 56.6756 50.0732 56.6789C50.0732 56.6822 50.0732 56.6855 50.0732 56.6889C50.0732 56.6922 50.0732 56.6955 50.0732 56.6988C50.0732 56.7021 50.0732 56.7054 50.0732 56.7087C50.0732 56.712 50.0732 56.7153 50.0732 56.7185C50.0732 56.7218 50.0732 56.7251 50.0732 56.7284C50.0732 56.7317 50.0732 56.735 50.0732 56.7383C50.0732 56.7416 50.0732 56.7449 50.0732 56.7482C50.0732 56.7515 50.0732 56.7547 50.0732 56.758C50.0732 56.7613 50.0732 56.7646 50.0732 56.7679C50.0732 56.7711 50.0732 56.7744 50.0732 56.7777C50.0732 56.781 50.0732 56.7843 50.0732 56.7875C50.0732 56.7908 50.0732 56.7941 50.0732 56.7973C50.0732 56.8006 50.0732 56.8039 50.0732 56.8071C50.0732 56.8104 50.0732 56.8137 50.0732 56.8169C50.0732 56.8202 50.0732 56.8235 50.0732 56.8267C50.0732 56.83 50.0732 56.8333 50.0732 56.8365C50.0732 56.8398 50.0732 56.843 50.0732 56.8463C50.0732 56.8495 50.0732 56.8528 50.0732 56.856C50.0732 56.8593 50.0732 56.8626 50.0732 56.8658C50.0732 56.8691 50.0732 56.8723 50.0732 56.8755C50.0732 56.8788 50.0732 56.882 50.0732 56.8853C50.0732 56.8885 50.0732 56.8918 50.0732 56.895C50.0732 56.8982 50.0732 56.9015 50.0732 56.9047C50.0732 56.908 50.0732 56.9112 50.0732 56.9144C50.0732 56.9177 50.0732 56.9209 50.0732 56.9241C50.0732 56.9273 50.0732 56.9306 50.0732 56.9338C50.0732 56.937 50.0732 56.9403 50.0732 56.9435C50.0732 56.9467 50.0732 56.9499 50.0732 56.9531C50.0732 56.9564 50.0732 56.9596 50.0732 56.9628C50.0732 56.966 50.0732 56.9692 50.0732 56.9724C50.0732 56.9757 50.0732 56.9789 50.0732 56.9821C50.0732 56.9853 50.0732 56.9885 50.0732 56.9917C50.0732 56.9949 50.0732 56.9981 50.0732 57.0013C50.0732 57.0045 50.0732 57.0077 50.0732 57.0109C50.0732 57.0141 50.0732 57.0173 50.0732 57.0205C50.0732 57.0237 50.0732 57.0269 50.0732 57.0301C50.0732 57.0333 50.0732 57.0365 50.0732 57.0397C50.0732 57.0429 50.0732 57.0461 50.0732 57.0493C50.0732 57.0525 50.0732 57.0557 50.0732 57.0588C50.0732 57.062 50.0732 57.0652 50.0732 57.0684C50.0732 57.0716 50.0732 57.0747 50.0732 57.0779C50.0732 57.0811 50.0732 57.0843 50.0732 57.0875C50.0732 57.0906 50.0732 57.0938 50.0732 57.097C50.0732 57.1001 50.0732 57.1033 50.0732 57.1065C50.0732 57.1097 50.0732 57.1128 50.0732 57.116C50.0732 57.1192 50.0732 57.1223 50.0732 57.1255C50.0732 57.1286 50.0732 57.1318 50.0732 57.135C50.0732 57.1381 50.0732 57.1413 50.0732 57.1444C50.0732 57.1476 50.0732 57.1507 50.0732 57.1539C50.0732 57.157 50.0732 57.1602 50.0732 57.1633C50.0732 57.1665 50.0732 57.1696 50.0732 57.1728C50.0732 57.1759 50.0732 57.1791 50.0732 57.1822C50.0732 57.1853 50.0732 57.1885 50.0732 57.1916C50.0732 57.1948 50.0732 57.1979 50.0732 57.201C50.0732 57.2042 50.0732 57.2073 50.0732 57.2104C50.0732 57.2136 50.0732 57.2167 50.0732 57.2198C50.0732 57.223 50.0732 57.2261 50.0732 57.2292C50.0732 57.2323 50.0732 57.2355 50.0732 57.2386C50.0732 57.2417 50.0732 57.2448 50.0732 57.2479C50.0732 57.251 50.0732 57.2542 50.0732 57.2573C50.0732 57.2604 50.0732 57.2635 50.0732 57.2666C50.0732 57.2697 50.0732 57.2728 50.0732 57.2759C50.0732 57.2791 50.0732 57.2822 50.0732 57.2853C50.0732 57.2884 50.0732 57.2915 50.0732 57.2946C50.0732 57.2977 50.0732 57.3008 50.0732 57.3039C50.0732 57.307 50.0732 57.3101 50.0732 57.3131C50.0732 57.3162 50.0732 57.3193 50.0732 57.3224C50.0732 57.3255 50.0732 57.3286 50.0732 57.3317C50.0732 57.3348 50.0732 57.3379 50.0732 57.3409C50.0732 57.344 50.0732 57.3471 50.0732 57.3502C50.0732 57.3533 50.0732 57.3563 50.0732 57.3594C50.0732 57.3625 50.0732 57.3656 50.0732 57.3686C50.0732 57.3717 50.0732 57.3748 50.0732 57.3778C50.0732 57.3809 50.0732 57.384 50.0732 57.387C50.0732 57.3901 50.0732 57.3932 50.0732 57.3962C50.0732 57.3993 50.0732 57.4024 50.0732 57.4054C50.0732 57.4085 50.0732 57.4115 50.0732 57.4146C50.0732 57.4176 50.0732 57.4207 50.0732 57.4237C50.0732 57.4268 50.0732 57.4298 50.0732 57.4329C50.0732 57.4359 50.0732 57.439 50.0732 57.442C50.0732 57.4451 50.0732 57.4481 50.0732 57.4512C50.0732 57.4542 50.0732 57.4572 50.0732 57.4603C50.0732 57.4633 50.0732 57.4663 50.0732 57.4694C50.0732 57.4724 50.0732 57.4754 50.0732 57.4785C50.0732 57.4815 50.0732 57.4845 50.0732 57.4875C50.0732 57.4906 50.0732 57.4936 50.0732 57.4966C50.0732 57.4996 50.0732 57.5027 50.0732 57.5057C50.0732 57.5087 50.0732 57.5117 50.0732 57.5147C50.0732 57.5177 50.0732 57.5208 50.0732 57.5238C50.0732 57.5268 50.0732 57.5298 50.0732 57.5328C50.0732 57.5358 50.0732 57.5388 50.0732 57.5418C50.0732 57.5448 50.0732 57.5478 50.0732 57.5508C50.0732 57.5538 50.0732 57.5568 50.0732 57.5598C50.0732 57.5628 50.0732 57.5658 50.0732 57.5688C50.0732 57.5718 50.0732 57.5748 50.0732 57.5778C50.0732 57.5807 50.0732 57.5837 50.0732 57.5867C50.0732 57.5897 50.0732 57.5927 50.0732 57.5957C50.0732 57.5987 50.0732 57.6016 50.0732 57.6046C50.0732 57.6076 50.0732 57.6106 50.0732 57.6135C50.0732 57.6165 50.0732 57.6195 50.0732 57.6224C50.0732 57.6254 50.0732 57.6284 50.0732 57.6314C50.0732 57.6343 50.0732 57.6373 50.0732 57.6402C50.0732 57.6432 50.0732 57.6462 50.0732 57.6491C50.0732 57.6521 50.0732 57.655 50.0732 57.658C50.0732 57.661 50.0732 57.6639 50.0732 57.6669C50.0732 57.6698 50.0732 57.6728 50.0732 57.6757C50.0732 57.6787 50.0732 57.6816 50.0732 57.6845C50.0732 57.6875 50.0732 57.6904 50.0732 57.6934C50.0732 57.6963 50.0732 57.6992 50.0732 57.7022C50.0732 57.7051 50.0732 57.708 50.0732 57.711C50.0732 57.7139 50.0732 57.7168 50.0732 57.7198C50.0732 57.7227 50.0732 57.7256 50.0732 57.7285C50.0732 57.7315 50.0732 57.7344 50.0732 57.7373C50.0732 57.7402 50.0732 57.7432 50.0732 57.7461C50.0732 57.749 50.0732 57.7519 50.0732 57.7548C50.0732 57.7577 50.0732 57.7606 50.0732 57.7635C50.0732 57.7665 50.0732 57.7694 50.0732 57.7723C50.0732 57.7752 50.0732 57.7781 50.0732 57.781C50.0732 57.7839 50.0732 57.7868 50.0732 57.7897C50.0732 57.7926 50.0732 57.7955 50.0732 57.7984C50.0732 57.8012 50.0732 57.8041 50.0732 57.807C50.0732 57.8099 50.0732 57.8128 50.0732 57.8157C50.0732 57.8186 50.0732 57.8215 50.0732 57.8243C50.0732 57.8272 50.0732 57.8301 50.0732 57.833C50.0732 57.8359 50.0732 57.8387 50.0732 57.8416C50.0732 57.8445 50.0732 57.8473 50.0732 57.8502C50.0732 57.8531 50.0732 57.856 50.0732 57.8588C50.0732 57.8617 50.0732 57.8645 50.0732 57.8674C50.0732 57.8703 50.0732 57.8731 50.0732 57.876C50.0732 57.8788 50.0732 57.8817 50.0732 57.8846C50.0732 57.8874 50.0732 57.8903 50.0732 57.8931C50.0732 57.896 50.0732 57.8988 50.0732 57.9016C50.0732 57.9045 50.0732 57.9073 50.0732 57.9102C50.0732 57.913 50.0732 57.9159 50.0732 57.9187C50.0732 57.9215 50.0732 57.9244 50.0732 57.9272C50.0732 57.93 50.0732 57.9329 50.0732 57.9357C50.0732 57.9385 50.0732 57.9414 50.0732 57.9442C50.0732 57.947 50.0732 57.9498 50.0732 57.9526C50.0732 57.9555 50.0732 57.9583 50.0732 57.9611C50.0732 57.9639 50.0732 57.9667 50.0732 57.9695C50.0732 57.9724 50.0732 57.9752 50.0732 57.978C50.0732 57.9808 50.0732 57.9836 50.0732 57.9864C50.0732 57.9892 50.0732 57.992 50.0732 57.9948C50.0732 57.9976 50.0732 58.0004 50.0732 58.0032C50.0732 58.006 50.0732 58.0088 50.0732 58.0116C50.0732 58.0144 50.0732 58.0172 50.0732 58.02C50.0732 58.0228 50.0732 58.0255 50.0732 58.0283H52.0732C52.0732 58.0255 52.0732 58.0228 52.0732 58.02C52.0732 58.0172 52.0732 58.0144 52.0732 58.0116C52.0732 58.0088 52.0732 58.006 52.0732 58.0032C52.0732 58.0004 52.0732 57.9976 52.0732 57.9948C52.0732 57.992 52.0732 57.9892 52.0732 57.9864C52.0732 57.9836 52.0732 57.9808 52.0732 57.978C52.0732 57.9752 52.0732 57.9724 52.0732 57.9695C52.0732 57.9667 52.0732 57.9639 52.0732 57.9611C52.0732 57.9583 52.0732 57.9555 52.0732 57.9526C52.0732 57.9498 52.0732 57.947 52.0732 57.9442C52.0732 57.9414 52.0732 57.9385 52.0732 57.9357C52.0732 57.9329 52.0732 57.93 52.0732 57.9272C52.0732 57.9244 52.0732 57.9215 52.0732 57.9187C52.0732 57.9159 52.0732 57.913 52.0732 57.9102C52.0732 57.9073 52.0732 57.9045 52.0732 57.9016C52.0732 57.8988 52.0732 57.896 52.0732 57.8931C52.0732 57.8903 52.0732 57.8874 52.0732 57.8846C52.0732 57.8817 52.0732 57.8788 52.0732 57.876C52.0732 57.8731 52.0732 57.8703 52.0732 57.8674C52.0732 57.8645 52.0732 57.8617 52.0732 57.8588C52.0732 57.856 52.0732 57.8531 52.0732 57.8502C52.0732 57.8473 52.0732 57.8445 52.0732 57.8416C52.0732 57.8387 52.0732 57.8359 52.0732 57.833C52.0732 57.8301 52.0732 57.8272 52.0732 57.8243C52.0732 57.8215 52.0732 57.8186 52.0732 57.8157C52.0732 57.8128 52.0732 57.8099 52.0732 57.807C52.0732 57.8041 52.0732 57.8012 52.0732 57.7984C52.0732 57.7955 52.0732 57.7926 52.0732 57.7897C52.0732 57.7868 52.0732 57.7839 52.0732 57.781C52.0732 57.7781 52.0732 57.7752 52.0732 57.7723C52.0732 57.7694 52.0732 57.7665 52.0732 57.7635C52.0732 57.7606 52.0732 57.7577 52.0732 57.7548C52.0732 57.7519 52.0732 57.749 52.0732 57.7461C52.0732 57.7432 52.0732 57.7402 52.0732 57.7373C52.0732 57.7344 52.0732 57.7315 52.0732 57.7285C52.0732 57.7256 52.0732 57.7227 52.0732 57.7198C52.0732 57.7168 52.0732 57.7139 52.0732 57.711C52.0732 57.708 52.0732 57.7051 52.0732 57.7022C52.0732 57.6992 52.0732 57.6963 52.0732 57.6934C52.0732 57.6904 52.0732 57.6875 52.0732 57.6845C52.0732 57.6816 52.0732 57.6787 52.0732 57.6757C52.0732 57.6728 52.0732 57.6698 52.0732 57.6669C52.0732 57.6639 52.0732 57.661 52.0732 57.658C52.0732 57.655 52.0732 57.6521 52.0732 57.6491C52.0732 57.6462 52.0732 57.6432 52.0732 57.6402C52.0732 57.6373 52.0732 57.6343 52.0732 57.6314C52.0732 57.6284 52.0732 57.6254 52.0732 57.6224C52.0732 57.6195 52.0732 57.6165 52.0732 57.6135C52.0732 57.6106 52.0732 57.6076 52.0732 57.6046C52.0732 57.6016 52.0732 57.5987 52.0732 57.5957C52.0732 57.5927 52.0732 57.5897 52.0732 57.5867C52.0732 57.5837 52.0732 57.5807 52.0732 57.5778C52.0732 57.5748 52.0732 57.5718 52.0732 57.5688C52.0732 57.5658 52.0732 57.5628 52.0732 57.5598C52.0732 57.5568 52.0732 57.5538 52.0732 57.5508C52.0732 57.5478 52.0732 57.5448 52.0732 57.5418C52.0732 57.5388 52.0732 57.5358 52.0732 57.5328C52.0732 57.5298 52.0732 57.5268 52.0732 57.5238C52.0732 57.5208 52.0732 57.5177 52.0732 57.5147C52.0732 57.5117 52.0732 57.5087 52.0732 57.5057C52.0732 57.5027 52.0732 57.4996 52.0732 57.4966C52.0732 57.4936 52.0732 57.4906 52.0732 57.4875C52.0732 57.4845 52.0732 57.4815 52.0732 57.4785C52.0732 57.4754 52.0732 57.4724 52.0732 57.4694C52.0732 57.4663 52.0732 57.4633 52.0732 57.4603C52.0732 57.4572 52.0732 57.4542 52.0732 57.4512C52.0732 57.4481 52.0732 57.4451 52.0732 57.442C52.0732 57.439 52.0732 57.4359 52.0732 57.4329C52.0732 57.4298 52.0732 57.4268 52.0732 57.4237C52.0732 57.4207 52.0732 57.4176 52.0732 57.4146C52.0732 57.4115 52.0732 57.4085 52.0732 57.4054C52.0732 57.4024 52.0732 57.3993 52.0732 57.3962C52.0732 57.3932 52.0732 57.3901 52.0732 57.387C52.0732 57.384 52.0732 57.3809 52.0732 57.3778C52.0732 57.3748 52.0732 57.3717 52.0732 57.3686C52.0732 57.3656 52.0732 57.3625 52.0732 57.3594C52.0732 57.3563 52.0732 57.3533 52.0732 57.3502C52.0732 57.3471 52.0732 57.344 52.0732 57.3409C52.0732 57.3379 52.0732 57.3348 52.0732 57.3317C52.0732 57.3286 52.0732 57.3255 52.0732 57.3224C52.0732 57.3193 52.0732 57.3162 52.0732 57.3131C52.0732 57.3101 52.0732 57.307 52.0732 57.3039C52.0732 57.3008 52.0732 57.2977 52.0732 57.2946C52.0732 57.2915 52.0732 57.2884 52.0732 57.2853C52.0732 57.2822 52.0732 57.2791 52.0732 57.2759C52.0732 57.2728 52.0732 57.2697 52.0732 57.2666C52.0732 57.2635 52.0732 57.2604 52.0732 57.2573C52.0732 57.2542 52.0732 57.251 52.0732 57.2479C52.0732 57.2448 52.0732 57.2417 52.0732 57.2386C52.0732 57.2355 52.0732 57.2323 52.0732 57.2292C52.0732 57.2261 52.0732 57.223 52.0732 57.2198C52.0732 57.2167 52.0732 57.2136 52.0732 57.2104C52.0732 57.2073 52.0732 57.2042 52.0732 57.201C52.0732 57.1979 52.0732 57.1948 52.0732 57.1916C52.0732 57.1885 52.0732 57.1853 52.0732 57.1822C52.0732 57.1791 52.0732 57.1759 52.0732 57.1728C52.0732 57.1696 52.0732 57.1665 52.0732 57.1633C52.0732 57.1602 52.0732 57.157 52.0732 57.1539C52.0732 57.1507 52.0732 57.1476 52.0732 57.1444C52.0732 57.1413 52.0732 57.1381 52.0732 57.135C52.0732 57.1318 52.0732 57.1286 52.0732 57.1255C52.0732 57.1223 52.0732 57.1192 52.0732 57.116C52.0732 57.1128 52.0732 57.1097 52.0732 57.1065C52.0732 57.1033 52.0732 57.1001 52.0732 57.097C52.0732 57.0938 52.0732 57.0906 52.0732 57.0875C52.0732 57.0843 52.0732 57.0811 52.0732 57.0779C52.0732 57.0747 52.0732 57.0716 52.0732 57.0684C52.0732 57.0652 52.0732 57.062 52.0732 57.0588C52.0732 57.0557 52.0732 57.0525 52.0732 57.0493C52.0732 57.0461 52.0732 57.0429 52.0732 57.0397C52.0732 57.0365 52.0732 57.0333 52.0732 57.0301C52.0732 57.0269 52.0732 57.0237 52.0732 57.0205C52.0732 57.0173 52.0732 57.0141 52.0732 57.0109C52.0732 57.0077 52.0732 57.0045 52.0732 57.0013C52.0732 56.9981 52.0732 56.9949 52.0732 56.9917C52.0732 56.9885 52.0732 56.9853 52.0732 56.9821C52.0732 56.9789 52.0732 56.9757 52.0732 56.9724C52.0732 56.9692 52.0732 56.966 52.0732 56.9628C52.0732 56.9596 52.0732 56.9564 52.0732 56.9531C52.0732 56.9499 52.0732 56.9467 52.0732 56.9435C52.0732 56.9403 52.0732 56.937 52.0732 56.9338C52.0732 56.9306 52.0732 56.9273 52.0732 56.9241C52.0732 56.9209 52.0732 56.9177 52.0732 56.9144C52.0732 56.9112 52.0732 56.908 52.0732 56.9047C52.0732 56.9015 52.0732 56.8982 52.0732 56.895C52.0732 56.8918 52.0732 56.8885 52.0732 56.8853C52.0732 56.882 52.0732 56.8788 52.0732 56.8755C52.0732 56.8723 52.0732 56.8691 52.0732 56.8658C52.0732 56.8626 52.0732 56.8593 52.0732 56.856C52.0732 56.8528 52.0732 56.8495 52.0732 56.8463C52.0732 56.843 52.0732 56.8398 52.0732 56.8365C52.0732 56.8333 52.0732 56.83 52.0732 56.8267C52.0732 56.8235 52.0732 56.8202 52.0732 56.8169C52.0732 56.8137 52.0732 56.8104 52.0732 56.8071C52.0732 56.8039 52.0732 56.8006 52.0732 56.7973C52.0732 56.7941 52.0732 56.7908 52.0732 56.7875C52.0732 56.7843 52.0732 56.781 52.0732 56.7777C52.0732 56.7744 52.0732 56.7711 52.0732 56.7679C52.0732 56.7646 52.0732 56.7613 52.0732 56.758C52.0732 56.7547 52.0732 56.7515 52.0732 56.7482C52.0732 56.7449 52.0732 56.7416 52.0732 56.7383C52.0732 56.735 52.0732 56.7317 52.0732 56.7284C52.0732 56.7251 52.0732 56.7218 52.0732 56.7185C52.0732 56.7153 52.0732 56.712 52.0732 56.7087C52.0732 56.7054 52.0732 56.7021 52.0732 56.6988C52.0732 56.6955 52.0732 56.6922 52.0732 56.6889C52.0732 56.6855 52.0732 56.6822 52.0732 56.6789C52.0732 56.6756 52.0732 56.6723 52.0732 56.669C52.0732 56.6657 52.0732 56.6624 52.0732 56.6591C52.0732 56.6558 52.0732 56.6524 52.0732 56.6491C52.0732 56.6458 52.0732 56.6425 52.0732 56.6392C52.0732 56.6359 52.0732 56.6325 52.0732 56.6292C52.0732 56.6259 52.0732 56.6226 52.0732 56.6192C52.0732 56.6159 52.0732 56.6126 52.0732 56.6093C52.0732 56.6059 52.0732 56.6026 52.0732 56.5993C52.0732 56.596 52.0732 56.5926 52.0732 56.5893C52.0732 56.586 52.0732 56.5826 52.0732 56.5793C52.0732 56.5759 52.0732 56.5726 52.0732 56.5693C52.0732 56.5659 52.0732 56.5626 52.0732 56.5592C52.0732 56.5559 52.0732 56.5526 52.0732 56.5492C52.0732 56.5459 52.0732 56.5425 52.0732 56.5392C52.0732 56.5358 52.0732 56.5325 52.0732 56.5291C52.0732 56.5258 52.0732 56.5224 52.0732 56.5191C52.0732 56.5157 52.0732 56.5124 52.0732 56.509C52.0732 56.5056 52.0732 56.5023 52.0732 56.4989C52.0732 56.4956 52.0732 56.4922 52.0732 56.4888C52.0732 56.4855 52.0732 56.4821 52.0732 56.4788C52.0732 56.4754 52.0732 56.472 52.0732 56.4687C52.0732 56.4653 52.0732 56.4619 52.0732 56.4585C52.0732 56.4552 52.0732 56.4518 52.0732 56.4484C52.0732 56.4451 52.0732 56.4417 52.0732 56.4383C52.0732 56.4349 52.0732 56.4316 52.0732 56.4282C52.0732 56.4248 52.0732 56.4214 52.0732 56.418C52.0732 56.4146 52.0732 56.4113 52.0732 56.4079C52.0732 56.4045 52.0732 56.4011 52.0732 56.3977C52.0732 56.3943 52.0732 56.3909 52.0732 56.3876C52.0732 56.3842 52.0732 56.3808 52.0732 56.3774C52.0732 56.374 52.0732 56.3706 52.0732 56.3672C52.0732 56.3638 52.0732 56.3604 52.0732 56.357C52.0732 56.3536 52.0732 56.3502 52.0732 56.3468C52.0732 56.3434 52.0732 56.34 52.0732 56.3366C52.0732 56.3332 52.0732 56.3298 52.0732 56.3264C52.0732 56.323 52.0732 56.3196 52.0732 56.3162C52.0732 56.3128 52.0732 56.3093 52.0732 56.3059C52.0732 56.3025 52.0732 56.2991 52.0732 56.2957C52.0732 56.2923 52.0732 56.2889 52.0732 56.2854C52.0732 56.282 52.0732 56.2786 52.0732 56.2752C52.0732 56.2718 52.0732 56.2683 52.0732 56.2649C52.0732 56.2615 52.0732 56.2581 52.0732 56.2546C52.0732 56.2512 52.0732 56.2478 52.0732 56.2444C52.0732 56.2409 52.0732 56.2375 52.0732 56.2341C52.0732 56.2307 52.0732 56.2272 52.0732 56.2238C52.0732 56.2204 52.0732 56.2169 52.0732 56.2135C52.0732 56.21 52.0732 56.2066 52.0732 56.2032C52.0732 56.1997 52.0732 56.1963 52.0732 56.1929C52.0732 56.1894 52.0732 56.186 52.0732 56.1825C52.0732 56.1791 52.0732 56.1756 52.0732 56.1722C52.0732 56.1687 52.0732 56.1653 52.0732 56.1618C52.0732 56.1584 52.0732 56.1549 52.0732 56.1515C52.0732 56.148 52.0732 56.1446 52.0732 56.1411C52.0732 56.1377 52.0732 56.1342 52.0732 56.1308C52.0732 56.1273 52.0732 56.1239 52.0732 56.1204C52.0732 56.1169 52.0732 56.1135 52.0732 56.11C52.0732 56.1066 52.0732 56.1031 52.0732 56.0996C52.0732 56.0962 52.0732 56.0927 52.0732 56.0892C52.0732 56.0858 52.0732 56.0823 52.0732 56.0788C52.0732 56.0754 52.0732 56.0719 52.0732 56.0684C52.0732 56.0649 52.0732 56.0615 52.0732 56.058C52.0732 56.0545 52.0732 56.051 52.0732 56.0476C52.0732 56.0441 52.0732 56.0406 52.0732 56.0371C52.0732 56.0337 52.0732 56.0302 52.0732 56.0267C52.0732 56.0232 52.0732 56.0197 52.0732 56.0162C52.0732 56.0128 52.0732 56.0093 52.0732 56.0058C52.0732 56.0023 52.0732 55.9988 52.0732 55.9953C52.0732 55.9918 52.0732 55.9883 52.0732 55.9849C52.0732 55.9814 52.0732 55.9779 52.0732 55.9744C52.0732 55.9709 52.0732 55.9674 52.0732 55.9639C52.0732 55.9604 52.0732 55.9569 52.0732 55.9534C52.0732 55.9499 52.0732 55.9464 52.0732 55.9429C52.0732 55.9394 52.0732 55.9359 52.0732 55.9324C52.0732 55.9289 52.0732 55.9254 52.0732 55.9219C52.0732 55.9184 52.0732 55.9149 52.0732 55.9114C52.0732 55.9078 52.0732 55.9043 52.0732 55.9008C52.0732 55.8973 52.0732 55.8938 52.0732 55.8903C52.0732 55.8868 52.0732 55.8833 52.0732 55.8797C52.0732 55.8762 52.0732 55.8727 52.0732 55.8692C52.0732 55.8657 52.0732 55.8622 52.0732 55.8586C52.0732 55.8551 52.0732 55.8516 52.0732 55.8481C52.0732 55.8446 52.0732 55.841 52.0732 55.8375C52.0732 55.834 52.0732 55.8305 52.0732 55.8269C52.0732 55.8234 52.0732 55.8199 52.0732 55.8163C52.0732 55.8128 52.0732 55.8093 52.0732 55.8057C52.0732 55.8022 52.0732 55.7987 52.0732 55.7951C52.0732 55.7916 52.0732 55.7881 52.0732 55.7845C52.0732 55.781 52.0732 55.7775 52.0732 55.7739C52.0732 55.7704 52.0732 55.7669 52.0732 55.7633C52.0732 55.7598 52.0732 55.7562 52.0732 55.7527C52.0732 55.7491 52.0732 55.7456 52.0732 55.742C52.0732 55.7385 52.0732 55.735 52.0732 55.7314C52.0732 55.7279 52.0732 55.7243 52.0732 55.7208C52.0732 55.7172 52.0732 55.7137 52.0732 55.7101C52.0732 55.7066 52.0732 55.703 52.0732 55.6994C52.0732 55.6959 52.0732 55.6923 52.0732 55.6888C52.0732 55.6852 52.0732 55.6817 52.0732 55.6781C52.0732 55.6745 52.0732 55.671 52.0732 55.6674C52.0732 55.6639 52.0732 55.6603 52.0732 55.6567C52.0732 55.6532 52.0732 55.6496 52.0732 55.646C52.0732 55.6425 52.0732 55.6389 52.0732 55.6353C52.0732 55.6318 52.0732 55.6282 52.0732 55.6246C52.0732 55.6211 52.0732 55.6175 52.0732 55.6139C52.0732 55.6104 52.0732 55.6068 52.0732 55.6032C52.0732 55.5996 52.0732 55.5961 52.0732 55.5925C52.0732 55.5889 52.0732 55.5853 52.0732 55.5817C52.0732 55.5782 52.0732 55.5746 52.0732 55.571C52.0732 55.5674 52.0732 55.5638 52.0732 55.5603C52.0732 55.5567 52.0732 55.5531 52.0732 55.5495C52.0732 55.5459 52.0732 55.5423 52.0732 55.5387C52.0732 55.5352 52.0732 55.5316 52.0732 55.528C52.0732 55.5244 52.0732 55.5208 52.0732 55.5172C52.0732 55.5136 52.0732 55.51 52.0732 55.5064C52.0732 55.5028 52.0732 55.4992 52.0732 55.4956C52.0732 55.4921 52.0732 55.4885 52.0732 55.4849C52.0732 55.4813 52.0732 55.4777 52.0732 55.4741C52.0732 55.4705 52.0732 55.4669 52.0732 55.4633C52.0732 55.4597 52.0732 55.4561 52.0732 55.4525C52.0732 55.4488 52.0732 55.4452 52.0732 55.4416C52.0732 55.438 52.0732 55.4344 52.0732 55.4308C52.0732 55.4272 52.0732 55.4236 52.0732 55.42C52.0732 55.4164 52.0732 55.4128 52.0732 55.4092C52.0732 55.4055 52.0732 55.4019 52.0732 55.3983C52.0732 55.3947 52.0732 55.3911 52.0732 55.3875C52.0732 55.3839 52.0732 55.3802 52.0732 55.3766C52.0732 55.373 52.0732 55.3694 52.0732 55.3658C52.0732 55.3621 52.0732 55.3585 52.0732 55.3549C52.0732 55.3513 52.0732 55.3477 52.0732 55.344C52.0732 55.3404 52.0732 55.3368 52.0732 55.3332C52.0732 55.3295 52.0732 55.3259 52.0732 55.3223C52.0732 55.3186 52.0732 55.315 52.0732 55.3114C52.0732 55.3078 52.0732 55.3041 52.0732 55.3005C52.0732 55.2969 52.0732 55.2932 52.0732 55.2896C52.0732 55.286 52.0732 55.2823 52.0732 55.2787C52.0732 55.2751 52.0732 55.2714 52.0732 55.2678C52.0732 55.2641 52.0732 55.2605 52.0732 55.2569C52.0732 55.2532 52.0732 55.2496 52.0732 55.2459C52.0732 55.2423 52.0732 55.2387 52.0732 55.235C52.0732 55.2314 52.0732 55.2277 52.0732 55.2241C52.0732 55.2204 52.0732 55.2168 52.0732 55.2131C52.0732 55.2095 52.0732 55.2058 52.0732 55.2022C52.0732 55.1985 52.0732 55.1949 52.0732 55.1912C52.0732 55.1876 52.0732 55.1839 52.0732 55.1803C52.0732 55.1766 52.0732 55.173 52.0732 55.1693C52.0732 55.1657 52.0732 55.162 52.0732 55.1584C52.0732 55.1547 52.0732 55.151 52.0732 55.1474C52.0732 55.1437 52.0732 55.1401 52.0732 55.1364C52.0732 55.1328 52.0732 55.1291 52.0732 55.1254C52.0732 55.1218 52.0732 55.1181 52.0732 55.1144C52.0732 55.1108 52.0732 55.1071 52.0732 55.1034C52.0732 55.0998 52.0732 55.0961 52.0732 55.0924C52.0732 55.0888 52.0732 55.0851 52.0732 55.0814C52.0732 55.0778 52.0732 55.0741 52.0732 55.0704C52.0732 55.0668 52.0732 55.0631 52.0732 55.0594C52.0732 55.0557 52.0732 55.0521 52.0732 55.0484C52.0732 55.0447 52.0732 55.041 52.0732 55.0374C52.0732 55.0337 52.0732 55.03 52.0732 55.0263C52.0732 55.0227 52.0732 55.019 52.0732 55.0153C52.0732 55.0116 52.0732 55.0079 52.0732 55.0043C52.0732 55.0006 52.0732 54.9969 52.0732 54.9932C52.0732 54.9895 52.0732 54.9858 52.0732 54.9822C52.0732 54.9785 52.0732 54.9748 52.0732 54.9711C52.0732 54.9674 52.0732 54.9637 52.0732 54.96C52.0732 54.9564 52.0732 54.9527 52.0732 54.949C52.0732 54.9453 52.0732 54.9416 52.0732 54.9379C52.0732 54.9342 52.0732 54.9305 52.0732 54.9268C52.0732 54.9231 52.0732 54.9194 52.0732 54.9157C52.0732 54.912 52.0732 54.9083 52.0732 54.9047C52.0732 54.901 52.0732 54.8973 52.0732 54.8936C52.0732 54.8899 52.0732 54.8862 52.0732 54.8825C52.0732 54.8788 52.0732 54.8751 52.0732 54.8714C52.0732 54.8677 52.0732 54.864 52.0732 54.8603C52.0732 54.8565 52.0732 54.8528 52.0732 54.8491C52.0732 54.8454 52.0732 54.8417 52.0732 54.838C52.0732 54.8343 52.0732 54.8306 52.0732 54.8269C52.0732 54.8232 52.0732 54.8195 52.0732 54.8158C52.0732 54.8121 52.0732 54.8084 52.0732 54.8046C52.0732 54.8009 52.0732 54.7972 52.0732 54.7935C52.0732 54.7898 52.0732 54.7861 52.0732 54.7824C52.0732 54.7786 52.0732 54.7749 52.0732 54.7712C52.0732 54.7675 52.0732 54.7638 52.0732 54.7601C52.0732 54.7563 52.0732 54.7526 52.0732 54.7489C52.0732 54.7452 52.0732 54.7415 52.0732 54.7378C52.0732 54.734 52.0732 54.7303 52.0732 54.7266C52.0732 54.7229 52.0732 54.7191 52.0732 54.7154C52.0732 54.7117 52.0732 54.708 52.0732 54.7042C52.0732 54.7005 52.0732 54.6968 52.0732 54.6931C52.0732 54.6893 52.0732 54.6856 52.0732 54.6819C52.0732 54.6782 52.0732 54.6744 52.0732 54.6707C52.0732 54.667 52.0732 54.6632 52.0732 54.6595C52.0732 54.6558 52.0732 54.652 52.0732 54.6483C52.0732 54.6446 52.0732 54.6408 52.0732 54.6371C52.0732 54.6334 52.0732 54.6296 52.0732 54.6259C52.0732 54.6222 52.0732 54.6184 52.0732 54.6147C52.0732 54.611 52.0732 54.6072 52.0732 54.6035C52.0732 54.5997 52.0732 54.596 52.0732 54.5923C52.0732 54.5885 52.0732 54.5848 52.0732 54.581C52.0732 54.5773 52.0732 54.5736 52.0732 54.5698C52.0732 54.5661 52.0732 54.5623 52.0732 54.5586C52.0732 54.5548 52.0732 54.5511 52.0732 54.5473C52.0732 54.5436 52.0732 54.5399 52.0732 54.5361C52.0732 54.5324 52.0732 54.5286 52.0732 54.5249C52.0732 54.5211 52.0732 54.5174 52.0732 54.5136C52.0732 54.5099 52.0732 54.5061 52.0732 54.5024C52.0732 54.4986 52.0732 54.4949 52.0732 54.4911C52.0732 54.4874 52.0732 54.4836 52.0732 54.4798C52.0732 54.4761 52.0732 54.4723 52.0732 54.4686C52.0732 54.4648 52.0732 54.4611 52.0732 54.4573C52.0732 54.4536 52.0732 54.4498 52.0732 54.446C52.0732 54.4423 52.0732 54.4385 52.0732 54.4348C52.0732 54.431 52.0732 54.4272 52.0732 54.4235C52.0732 54.4197 52.0732 54.416 52.0732 54.4122C52.0732 54.4084 52.0732 54.4047 52.0732 54.4009C52.0732 54.3971 52.0732 54.3934 52.0732 54.3896C52.0732 54.3859 52.0732 54.3821 52.0732 54.3783C52.0732 54.3746 52.0732 54.3708 52.0732 54.367C52.0732 54.3633 52.0732 54.3595 52.0732 54.3557C52.0732 54.3519 52.0732 54.3482 52.0732 54.3444C52.0732 54.3406 52.0732 54.3369 52.0732 54.3331C52.0732 54.3293 52.0732 54.3256 52.0732 54.3218C52.0732 54.318 52.0732 54.3142 52.0732 54.3105C52.0732 54.3067 52.0732 54.3029 52.0732 54.2991C52.0732 54.2954 52.0732 54.2916 52.0732 54.2878C52.0732 54.284 52.0732 54.2803 52.0732 54.2765C52.0732 54.2727 52.0732 54.2689 52.0732 54.2652C52.0732 54.2614 52.0732 54.2576 52.0732 54.2538C52.0732 54.25 52.0732 54.2463 52.0732 54.2425C52.0732 54.2387 52.0732 54.2349 52.0732 54.2311C52.0732 54.2273 52.0732 54.2236 52.0732 54.2198C52.0732 54.216 52.0732 54.2122 52.0732 54.2084C52.0732 54.2046 52.0732 54.2009 52.0732 54.1971C52.0732 54.1933 52.0732 54.1895 52.0732 54.1857C52.0732 54.1819 52.0732 54.1781 52.0732 54.1744C52.0732 54.1706 52.0732 54.1668 52.0732 54.163C52.0732 54.1592 52.0732 54.1554 52.0732 54.1516C52.0732 54.1478 52.0732 54.144 52.0732 54.1402C52.0732 54.1365 52.0732 54.1327 52.0732 54.1289C52.0732 54.1251 52.0732 54.1213 52.0732 54.1175C52.0732 54.1137 52.0732 54.1099 52.0732 54.1061C52.0732 54.1023 52.0732 54.0985 52.0732 54.0947C52.0732 54.0909 52.0732 54.0871 52.0732 54.0833C52.0732 54.0795 52.0732 54.0757 52.0732 54.0719C52.0732 54.0681 52.0732 54.0643 52.0732 54.0605C52.0732 54.0567 52.0732 54.0529 52.0732 54.0491C52.0732 54.0453 52.0732 54.0415 52.0732 54.0377C52.0732 54.0339 52.0732 54.0301 52.0732 54.0263C52.0732 54.0225 52.0732 54.0187 52.0732 54.0149C52.0732 54.0111 52.0732 54.0073 52.0732 54.0035C52.0732 53.9997 52.0732 53.9959 52.0732 53.9921C52.0732 53.9883 52.0732 53.9845 52.0732 53.9807C52.0732 53.9769 52.0732 53.9731 52.0732 53.9693C52.0732 53.9655 52.0732 53.9616 52.0732 53.9578C52.0732 53.954 52.0732 53.9502 52.0732 53.9464C52.0732 53.9426 52.0732 53.9388 52.0732 53.935C52.0732 53.9312 52.0732 53.9274 52.0732 53.9236C52.0732 53.9197 52.0732 53.9159 52.0732 53.9121C52.0732 53.9083 52.0732 53.9045 52.0732 53.9007C52.0732 53.8969 52.0732 53.893 52.0732 53.8892C52.0732 53.8854 52.0732 53.8816 52.0732 53.8778C52.0732 53.874 52.0732 53.8702 52.0732 53.8663C52.0732 53.8625 52.0732 53.8587 52.0732 53.8549C52.0732 53.8511 52.0732 53.8473 52.0732 53.8434C52.0732 53.8396 52.0732 53.8358 52.0732 53.832C52.0732 53.8282 52.0732 53.8243 52.0732 53.8205C52.0732 53.8167 52.0732 53.8129 52.0732 53.8091C52.0732 53.8052 52.0732 53.8014 52.0732 53.7976C52.0732 53.7938 52.0732 53.79 52.0732 53.7861C52.0732 53.7823 52.0732 53.7785 52.0732 53.7747C52.0732 53.7708 52.0732 53.767 52.0732 53.7632C52.0732 53.7594 52.0732 53.7555 52.0732 53.7517C52.0732 53.7479 52.0732 53.7441 52.0732 53.7402C52.0732 53.7364 52.0732 53.7326 52.0732 53.7288C52.0732 53.7249 52.0732 53.7211 52.0732 53.7173C52.0732 53.7135 52.0732 53.7096 52.0732 53.7058C52.0732 53.702 52.0732 53.6981 52.0732 53.6943C52.0732 53.6905 52.0732 53.6867 52.0732 53.6828C52.0732 53.679 52.0732 53.6752 52.0732 53.6713C52.0732 53.6675 52.0732 53.6637 52.0732 53.6598C52.0732 53.656 52.0732 53.6522 52.0732 53.6483C52.0732 53.6445 52.0732 53.6407 52.0732 53.6368C52.0732 53.633 52.0732 53.6292 52.0732 53.6253C52.0732 53.6215 52.0732 53.6177 52.0732 53.6138C52.0732 53.61 52.0732 53.6062 52.0732 53.6023C52.0732 53.5985 52.0732 53.5947 52.0732 53.5908C52.0732 53.587 52.0732 53.5832 52.0732 53.5793C52.0732 53.5755 52.0732 53.5716 52.0732 53.5678C52.0732 53.564 52.0732 53.5601 52.0732 53.5563C52.0732 53.5525 52.0732 53.5486 52.0732 53.5448C52.0732 53.5409 52.0732 53.5371 52.0732 53.5333C52.0732 53.5294 52.0732 53.5256 52.0732 53.5217C52.0732 53.5179 52.0732 53.5141 52.0732 53.5102C52.0732 53.5064 52.0732 53.5025 52.0732 53.4987C52.0732 53.4948 52.0732 53.491 52.0732 53.4872C52.0732 53.4833 52.0732 53.4795 52.0732 53.4756C52.0732 53.4718 52.0732 53.4679 52.0732 53.4641C52.0732 53.4603 52.0732 53.4564 52.0732 53.4526C52.0732 53.4487 52.0732 53.4449 52.0732 53.441C52.0732 53.4372 52.0732 53.4333 52.0732 53.4295C52.0732 53.4256 52.0732 53.4218 52.0732 53.418C52.0732 53.4141 52.0732 53.4103 52.0732 53.4064C52.0732 53.4026 52.0732 53.3987 52.0732 53.3949C52.0732 53.391 52.0732 53.3872 52.0732 53.3833C52.0732 53.3795 52.0732 53.3756 52.0732 53.3718C52.0732 53.3679 52.0732 53.3641 52.0732 53.3602C52.0732 53.3564 52.0732 53.3525 52.0732 53.3487C52.0732 53.3448 52.0732 53.341 52.0732 53.3371C52.0732 53.3333 52.0732 53.3294 52.0732 53.3256C52.0732 53.3217 52.0732 53.3179 52.0732 53.314C52.0732 53.3102 52.0732 53.3063 52.0732 53.3025C52.0732 53.2986 52.0732 53.2948 52.0732 53.2909C52.0732 53.287 52.0732 53.2832 52.0732 53.2793C52.0732 53.2755 52.0732 53.2716 52.0732 53.2678C52.0732 53.2639 52.0732 53.2601 52.0732 53.2562C52.0732 53.2524 52.0732 53.2485 52.0732 53.2447C52.0732 53.2408 52.0732 53.2369 52.0732 53.2331C52.0732 53.2292 52.0732 53.2254 52.0732 53.2215C52.0732 53.2177 52.0732 53.2138 52.0732 53.2099C52.0732 53.2061 52.0732 53.2022 52.0732 53.1984C52.0732 53.1945 52.0732 53.1907 52.0732 53.1868C52.0732 53.1829 52.0732 53.1791 52.0732 53.1752C52.0732 53.1714 52.0732 53.1675 52.0732 53.1637C52.0732 53.1598 52.0732 53.1559 52.0732 53.1521C52.0732 53.1482 52.0732 53.1444 52.0732 53.1405C52.0732 53.1366 52.0732 53.1328 52.0732 53.1289C52.0732 53.1251 52.0732 53.1212 52.0732 53.1173C52.0732 53.1135 52.0732 53.1096 52.0732 53.1058C52.0732 53.1019 52.0732 53.098 52.0732 53.0942C52.0732 53.0903 52.0732 53.0865 52.0732 53.0826C52.0732 53.0787 52.0732 53.0749 52.0732 53.071C52.0732 53.0671 52.0732 53.0633 52.0732 53.0594C52.0732 53.0556 52.0732 53.0517 52.0732 53.0478C52.0732 53.044 52.0732 53.0401 52.0732 53.0362C52.0732 53.0324 52.0732 53.0285 52.0732 53.0247C52.0732 53.0208 52.0732 53.0169 52.0732 53.0131C52.0732 53.0092 52.0732 53.0053 52.0732 53.0015C52.0732 52.9976 52.0732 52.9937 52.0732 52.9899C52.0732 52.986 52.0732 52.9821 52.0732 52.9783C52.0732 52.9744 52.0732 52.9706 52.0732 52.9667C52.0732 52.9628 52.0732 52.959 52.0732 52.9551C52.0732 52.9512 52.0732 52.9474 52.0732 52.9435C52.0732 52.9396 52.0732 52.9358 52.0732 52.9319C52.0732 52.928 52.0732 52.9242 52.0732 52.9203C52.0732 52.9164 52.0732 52.9126 52.0732 52.9087C52.0732 52.9048 52.0732 52.901 52.0732 52.8971C52.0732 52.8932 52.0732 52.8894 52.0732 52.8855C52.0732 52.8816 52.0732 52.8778 52.0732 52.8739C52.0732 52.87 52.0732 52.8662 52.0732 52.8623C52.0732 52.8584 52.0732 52.8545 52.0732 52.8507C52.0732 52.8468 52.0732 52.8429 52.0732 52.8391C52.0732 52.8352 52.0732 52.8313 52.0732 52.8275C52.0732 52.8236 52.0732 52.8197 52.0732 52.8159C52.0732 52.812 52.0732 52.8081 52.0732 52.8043C52.0732 52.8004 52.0732 52.7965 52.0732 52.7927C52.0732 52.7888 52.0732 52.7849 52.0732 52.781C52.0732 52.7772 52.0732 52.7733 52.0732 52.7694C52.0732 52.7656 52.0732 52.7617 52.0732 52.7578C52.0732 52.754 52.0732 52.7501 52.0732 52.7462C52.0732 52.7423 52.0732 52.7385 52.0732 52.7346C52.0732 52.7307 52.0732 52.7269 52.0732 52.723C52.0732 52.7191 52.0732 52.7153 52.0732 52.7114C52.0732 52.7075 52.0732 52.7036 52.0732 52.6998C52.0732 52.6959 52.0732 52.692 52.0732 52.6882C52.0732 52.6843 52.0732 52.6804 52.0732 52.6765C52.0732 52.6727 52.0732 52.6688 52.0732 52.6649C52.0732 52.6611 52.0732 52.6572 52.0732 52.6533H50.0732ZM50.0732 58.0283V79.5283H52.0732V58.0283H50.0732ZM51.0732 80.5283H72.5732V78.5283H51.0732V80.5283ZM73.5732 79.5283V49.9658H71.5732V79.5283H73.5732Z" fill="#2D2D2D"/>
<path d="M2.00739 43.8679L1.28439 44.5587L2.6661 46.0047L3.3891 45.3139L2.00739 43.8679ZM43.0107 6.07056L43.7016 5.34756L43.0107 4.68742L42.3199 5.34756L43.0107 6.07056ZM82.6324 45.3139L83.3554 46.0047L84.7371 44.5587L84.0141 43.8679L82.6324 45.3139ZM3.3891 45.3139L43.7016 6.79355L42.3199 5.34756L2.00739 43.8679L3.3891 45.3139ZM42.3199 6.79355L82.6324 45.3139L84.0141 43.8679L43.7016 5.34756L42.3199 6.79355Z" fill="#2D2D2D"/>
</svg>
