<svg width="86" height="86" viewBox="0 0 86 86" fill="none" xmlns="http://www.w3.org/2000/svg">
<path d="M34.9375 59.125V21.5H24.1875V59.125" stroke="#2D2D2D" stroke-width="2" stroke-linecap="square"/>
<path d="M72.0265 37.4353L72.0265 21.2471" stroke="#2D2D2D" stroke-width="2" stroke-linecap="square"/>
<path d="M83.3125 69.875H2.68758C2.68741 72.5625 2.6875 71.0782 2.6875 72.5625V80.625L2.6875 81.3739C2.6875 82.2642 2.68749 82.6248 2.68762 83.3125H83.3125V80.625V72.5625V69.875Z" stroke="#2D2D2D" stroke-width="2" stroke-linecap="square"/>
<path d="M75.25 53.75V69.875" stroke="#2D2D2D" stroke-width="2" stroke-linecap="square"/>
<path d="M64.5 53.75V69.875" stroke="#2D2D2D" stroke-width="2" stroke-linecap="square"/>
<path d="M53.75 53.75V69.875" stroke="#2D2D2D" stroke-width="2" stroke-linecap="square"/>
<path d="M2.6875 21.4999L2.00297 20.7709L0.151977 22.5091L2.6911 22.4999L2.6875 21.4999ZM73.0382 21.247L73.0418 22.247L73.4113 20.3192L73.0382 21.247ZM23.9677 1.51758L24.3407 0.589763L23.7485 0.351645L23.2831 0.788592L23.9677 1.51758ZM2.6911 22.4999L73.0418 22.247L73.0346 20.247L2.6839 20.4999L2.6911 22.4999ZM3.37203 22.2289L24.6522 2.24656L23.2831 0.788592L2.00297 20.7709L3.37203 22.2289ZM23.5946 2.44539L72.6652 22.1748L73.4113 20.3192L24.3407 0.589763L23.5946 2.44539Z" fill="#2D2D2D"/>
<path d="M24.1875 2.6875V21.5" stroke="#2D2D2D" stroke-width="2" stroke-linecap="square"/>
</svg>
