<svg width="86" height="86" viewBox="0 0 86 86" fill="none" xmlns="http://www.w3.org/2000/svg">
<path d="M33.0949 18.4001C35.8401 13.1576 39.1504 8.23108 42.967 3.70847C43.191 3.44606 43.4693 3.23536 43.7826 3.09088C44.096 2.9464 44.4369 2.87158 44.782 2.87158C45.127 2.87158 45.4679 2.9464 45.7813 3.09088C46.0946 3.23536 46.3729 3.44606 46.5969 3.70847C50.4145 8.23028 53.725 13.1569 56.469 18.4001" stroke="#2D2D2D" stroke-width="2" stroke-linecap="round" stroke-linejoin="round"/>
<path d="M44.7911 40.3694L64.3991 3.49331C64.9617 2.43623 65.6748 2.5079 65.9794 3.65815L68.2369 12.1363C72.0495 26.4696 60.5112 40.3694 44.7804 40.3694H44.7911Z" stroke="#2D2D2D" stroke-width="2" stroke-linecap="round" stroke-linejoin="round"/>
<path d="M44.7913 40.3694L25.1654 3.49331C24.6028 2.43623 23.8897 2.5079 23.5852 3.65815L21.3277 12.1363C17.515 26.4696 29.0533 40.3694 44.7806 40.3694H44.7913Z" stroke="#2D2D2D" stroke-width="2" stroke-linecap="round" stroke-linejoin="round"/>
<path d="M56.448 83.3686C57.7012 83.3684 59.3795 83.3686 59.3795 83.3686L69.4972 40.3684C66.9678 40.3684 63.283 40.3687 62.4931 40.3686L20.4263 40.3685L29.5325 83.3686C29.5325 83.3686 31.8637 83.3684 33.1169 83.3686H56.448Z" stroke="#2D2D2D" stroke-width="2" stroke-linecap="round"/>
</svg>
