<svg width="86" height="86" viewBox="0 0 86 86" fill="none" xmlns="http://www.w3.org/2000/svg">
<path d="M77.9375 33.5938C76.512 33.5938 74.0501 33.5943 72.5625 33.5941C72.5625 34.9059 72.5625 37.5432 72.5625 38.9687V44.3438C72.5625 45.0565 72.5625 46.5412 72.5625 47.0313C71.5207 47.0313 70.5878 47.0313 69.875 47.0313H16.125C15.4123 47.0313 14.3558 47.0313 13.4375 47.0313C13.4375 46.5412 13.4375 45.0565 13.4375 44.3438V38.9687C13.4375 37.5432 13.4375 35.1681 13.4375 33.5939C11.8265 33.5938 9.48806 33.5938 8.06252 33.5938C6.63698 33.5938 3.73238 33.5942 2.68741 33.5941C2.6873 34.9059 2.68752 37.5432 2.68752 38.9687V49.7188C2.68752 52.5698 2.68777 57.1647 2.68732 60.4688C6.26184 60.4688 10.5864 60.4688 13.4375 60.4688H72.5625C75.4136 60.4688 80.6265 60.4688 83.3125 60.4688C83.3125 58.1765 83.3125 52.5698 83.3125 49.7188V38.9687C83.3125 37.5432 83.3125 35.1681 83.3125 33.5939C81.6383 33.5938 79.363 33.5938 77.9375 33.5938Z" stroke="#2D2D2D" stroke-width="2" stroke-linecap="square"/>
<path d="M13.4375 60.4688V68.5312" stroke="#2D2D2D" stroke-width="2" stroke-linecap="square"/>
<path d="M72.5625 60.4688V68.5312" stroke="#2D2D2D" stroke-width="2" stroke-linecap="square"/>
<path d="M8.06255 33.5938C8.06255 29.3172 8.06255 20.7413 8.0625 17.4692C11.8265 17.469 19.9109 17.4688 24.1875 17.4688H61.8125C66.0892 17.4688 73.5442 17.4683 77.9375 17.4686C77.9375 22.2586 77.9375 29.3172 77.9375 33.5938" stroke="#2D2D2D" stroke-width="2" stroke-linecap="square"/>
<path d="M43 47.0312V17.4688" stroke="#2D2D2D" stroke-width="2" stroke-linecap="square"/>
</svg>
